<ttFont>
    <TTGlyph name=".notdef" xMin="102" yMin="0" xMax="922" yMax="1462">
      <contour>
        <pt x="102" y="0" on="1"/>
        <pt x="102" y="1462" on="1"/>
        <pt x="922" y="1462" on="1"/>
        <pt x="922" y="0" on="1"/>
      </contour>
      <contour>
        <pt x="201" y="98" on="1"/>
        <pt x="823" y="98" on="1"/>
        <pt x="823" y="1364" on="1"/>
        <pt x="201" y="1364" on="1"/>
      </contour>
    </TTGlyph>
    <TTGlyph name="glyph00096" xMin="205" yMin="0" xMax="2584" yMax="1483">
      <component glyphName="uni0548" x="0" y="0" flags="0x4"/>
      <component glyphName="uni0552" x="1466" y="0" flags="0x4"/>
    </TTGlyph>
    <TTGlyph name="glyph00097" xMin="57" yMin="0" xMax="2069" yMax="1118">
      <component glyphName="uni0578" x="0" y="0" flags="0x4"/>
      <component glyphName="uni0582" x="1321" y="0" flags="0x4"/>
    </TTGlyph>
    <TTGlyph name="uni0531" xMin="31" yMin="-20" xMax="1579" yMax="1462">
      <contour>
        <pt x="432" y="418" on="1"/>
        <pt x="432" y="257" on="0"/>
        <pt x="596" y="90" on="0"/>
        <pt x="754" y="90" on="1"/>
        <pt x="908" y="90" on="0"/>
        <pt x="1075" y="259" on="0"/>
        <pt x="1075" y="410" on="1"/>
        <pt x="1075" y="1237" on="1"/>
        <pt x="1075" y="1287" on="0"/>
        <pt x="1040" y="1348" on="0"/>
        <pt x="973" y="1376" on="0"/>
        <pt x="907" y="1376" on="1"/>
        <pt x="881" y="1376" on="1"/>
        <pt x="881" y="1462" on="1"/>
        <pt x="1282" y="1462" on="1"/>
        <pt x="1282" y="420" on="1"/>
        <pt x="1579" y="367" on="0"/>
        <pt x="1579" y="115" on="1"/>
        <pt x="1579" y="53" on="0"/>
        <pt x="1491" y="-20" on="0"/>
        <pt x="1419" y="-20" on="1"/>
        <pt x="1419" y="113" on="0"/>
        <pt x="1352" y="272" on="0"/>
        <pt x="1272" y="309" on="1"/>
        <pt x="1240" y="152" on="0"/>
        <pt x="980" y="-20" on="0"/>
        <pt x="762" y="-20" on="1"/>
        <pt x="491" y="-20" on="0"/>
        <pt x="225" y="208" on="0"/>
        <pt x="225" y="442" on="1"/>
        <pt x="225" y="1237" on="1"/>
        <pt x="225" y="1287" on="0"/>
        <pt x="190" y="1348" on="0"/>
        <pt x="123" y="1376" on="0"/>
        <pt x="57" y="1376" on="1"/>
        <pt x="31" y="1376" on="1"/>
        <pt x="31" y="1462" on="1"/>
        <pt x="432" y="1462" on="1"/>
      </contour>
    </TTGlyph>
    <TTGlyph name="uni0532" xMin="184" yMin="0" xMax="1200" yMax="1483">
      <contour>
        <pt x="184" y="973" on="1"/>
        <pt x="184" y="1483" on="0"/>
        <pt x="680" y="1483" on="1"/>
        <pt x="916" y="1483" on="0"/>
        <pt x="1159" y="1241" on="0"/>
        <pt x="1159" y="1006" on="1"/>
        <pt x="1159" y="901" on="1"/>
        <pt x="952" y="901" on="1"/>
        <pt x="952" y="1012" on="1"/>
        <pt x="952" y="1189" on="0"/>
        <pt x="810" y="1372" on="0"/>
        <pt x="672" y="1372" on="1"/>
        <pt x="528" y="1372" on="0"/>
        <pt x="391" y="1182" on="0"/>
        <pt x="391" y="987" on="1"/>
        <pt x="391" y="711" on="1"/>
        <pt x="774" y="711" on="1"/>
        <pt x="994" y="711" on="0"/>
        <pt x="1200" y="621" on="0"/>
        <pt x="1200" y="512" on="1"/>
        <pt x="1200" y="459" on="0"/>
        <pt x="1114" y="401" on="0"/>
        <pt x="1040" y="401" on="1"/>
        <pt x="1040" y="480" on="0"/>
        <pt x="975" y="564" on="0"/>
        <pt x="832" y="600" on="0"/>
        <pt x="692" y="600" on="1"/>
        <pt x="391" y="600" on="1"/>
        <pt x="391" y="0" on="1"/>
        <pt x="184" y="0" on="1"/>
      </contour>
    </TTGlyph>
    <TTGlyph name="uni0533" xMin="78" yMin="0" xMax="1479" yMax="1485">
      <contour>
        <pt x="860" y="555" on="1"/>
        <pt x="588" y="555" on="1"/>
        <pt x="318" y="555" on="0"/>
        <pt x="78" y="779" on="0"/>
        <pt x="78" y="1014" on="1"/>
        <pt x="78" y="1240" on="0"/>
        <pt x="342" y="1485" on="0"/>
        <pt x="588" y="1485" on="1"/>
        <pt x="823" y="1485" on="0"/>
        <pt x="1067" y="1246" on="0"/>
        <pt x="1067" y="1004" on="1"/>
        <pt x="1067" y="666" on="1"/>
        <pt x="1279" y="666" on="0"/>
        <pt x="1479" y="576" on="0"/>
        <pt x="1479" y="467" on="1"/>
        <pt x="1479" y="414" on="0"/>
        <pt x="1393" y="356" on="0"/>
        <pt x="1319" y="356" on="1"/>
        <pt x="1319" y="458" on="0"/>
        <pt x="1205" y="555" on="0"/>
        <pt x="1067" y="555" on="1"/>
        <pt x="1067" y="0" on="1"/>
        <pt x="860" y="0" on="1"/>
      </contour>
      <contour>
        <pt x="299" y="1026" on="1"/>
        <pt x="299" y="666" on="0"/>
        <pt x="580" y="666" on="1"/>
        <pt x="860" y="666" on="1"/>
        <pt x="860" y="1004" on="1"/>
        <pt x="860" y="1374" on="0"/>
        <pt x="580" y="1374" on="1"/>
        <pt x="436" y="1374" on="0"/>
        <pt x="299" y="1199" on="0"/>
      </contour>
    </TTGlyph>
    <TTGlyph name="uni0534" xMin="92" yMin="0" xMax="1479" yMax="1483">
      <contour>
        <pt x="1067" y="0" on="1"/>
        <pt x="860" y="0" on="1"/>
        <pt x="860" y="1012" on="1"/>
        <pt x="860" y="1189" on="0"/>
        <pt x="718" y="1372" on="0"/>
        <pt x="580" y="1372" on="1"/>
        <pt x="431" y="1372" on="0"/>
        <pt x="299" y="1186" on="0"/>
        <pt x="299" y="987" on="1"/>
        <pt x="299" y="870" on="1"/>
        <pt x="92" y="870" on="1"/>
        <pt x="92" y="999" on="1"/>
        <pt x="92" y="1229" on="0"/>
        <pt x="351" y="1483" on="0"/>
        <pt x="588" y="1483" on="1"/>
        <pt x="824" y="1483" on="0"/>
        <pt x="1067" y="1241" on="0"/>
        <pt x="1067" y="1006" on="1"/>
        <pt x="1067" y="838" on="1"/>
        <pt x="1279" y="838" on="0"/>
        <pt x="1479" y="748" on="0"/>
        <pt x="1479" y="639" on="1"/>
        <pt x="1479" y="586" on="0"/>
        <pt x="1393" y="528" on="0"/>
        <pt x="1319" y="528" on="1"/>
        <pt x="1319" y="630" on="0"/>
        <pt x="1205" y="727" on="0"/>
        <pt x="1067" y="727" on="1"/>
      </contour>
    </TTGlyph>
    <TTGlyph name="uni0535" xMin="31" yMin="-20" xMax="1241" yMax="1462">
      <contour>
        <pt x="432" y="418" on="1"/>
        <pt x="432" y="257" on="0"/>
        <pt x="576" y="90" on="0"/>
        <pt x="713" y="90" on="1"/>
        <pt x="848" y="90" on="0"/>
        <pt x="993" y="259" on="0"/>
        <pt x="993" y="410" on="1"/>
        <pt x="993" y="489" on="1"/>
        <pt x="1200" y="489" on="1"/>
        <pt x="1200" y="418" on="1"/>
        <pt x="1200" y="209" on="0"/>
        <pt x="951" y="-20" on="0"/>
        <pt x="721" y="-20" on="1"/>
        <pt x="468" y="-20" on="0"/>
        <pt x="225" y="211" on="0"/>
        <pt x="225" y="442" on="1"/>
        <pt x="225" y="1237" on="1"/>
        <pt x="225" y="1287" on="0"/>
        <pt x="190" y="1348" on="0"/>
        <pt x="123" y="1376" on="0"/>
        <pt x="57" y="1376" on="1"/>
        <pt x="31" y="1376" on="1"/>
        <pt x="31" y="1462" on="1"/>
        <pt x="432" y="1462" on="1"/>
        <pt x="432" y="997" on="1"/>
        <pt x="815" y="997" on="1"/>
        <pt x="1038" y="997" on="0"/>
        <pt x="1241" y="908" on="0"/>
        <pt x="1241" y="799" on="1"/>
        <pt x="1241" y="746" on="0"/>
        <pt x="1155" y="688" on="0"/>
        <pt x="1081" y="688" on="1"/>
        <pt x="1081" y="767" on="0"/>
        <pt x="1016" y="851" on="0"/>
        <pt x="873" y="887" on="0"/>
        <pt x="733" y="887" on="1"/>
        <pt x="432" y="887" on="1"/>
      </contour>
    </TTGlyph>
    <TTGlyph name="uni0536" xMin="113" yMin="-311" xMax="1241" yMax="1483">
      <contour>
        <pt x="319" y="870" on="1"/>
        <pt x="113" y="870" on="1"/>
        <pt x="113" y="999" on="1"/>
        <pt x="113" y="1228" on="0"/>
        <pt x="392" y="1483" on="0"/>
        <pt x="649" y="1483" on="1"/>
        <pt x="906" y="1483" on="0"/>
        <pt x="1180" y="1211" on="0"/>
        <pt x="1180" y="954" on="1"/>
        <pt x="1180" y="723" on="0"/>
        <pt x="826" y="300" on="0"/>
        <pt x="481" y="111" on="1"/>
        <pt x="911" y="111" on="1"/>
        <pt x="1080" y="111" on="0"/>
        <pt x="1241" y="-7" on="0"/>
        <pt x="1241" y="-135" on="1"/>
        <pt x="1241" y="-217" on="0"/>
        <pt x="1160" y="-307" on="0"/>
        <pt x="1081" y="-307" on="1"/>
        <pt x="1081" y="-175" on="0"/>
        <pt x="1041" y="-51" on="0"/>
        <pt x="945" y="0" on="0"/>
        <pt x="842" y="0" on="1"/>
        <pt x="319" y="0" on="1"/>
        <pt x="319" y="-311" on="1"/>
        <pt x="113" y="-311" on="1"/>
        <pt x="113" y="111" on="1"/>
        <pt x="185" y="111" on="0"/>
        <pt x="411" y="175" on="0"/>
        <pt x="475" y="223" on="1"/>
        <pt x="657" y="356" on="0"/>
        <pt x="865" y="579" on="0"/>
        <pt x="958" y="802" on="0"/>
        <pt x="958" y="954" on="1"/>
        <pt x="958" y="1159" on="0"/>
        <pt x="805" y="1372" on="0"/>
        <pt x="641" y="1372" on="1"/>
        <pt x="475" y="1372" on="0"/>
        <pt x="319" y="1179" on="0"/>
        <pt x="319" y="975" on="1"/>
      </contour>
    </TTGlyph>
    <TTGlyph name="uni0537" xMin="31" yMin="-195" xMax="1169" yMax="1462">
      <contour>
        <pt x="743" y="928" on="1"/>
        <pt x="963" y="928" on="0"/>
        <pt x="1169" y="838" on="0"/>
        <pt x="1169" y="729" on="1"/>
        <pt x="1169" y="676" on="0"/>
        <pt x="1083" y="618" on="0"/>
        <pt x="1010" y="618" on="1"/>
        <pt x="1010" y="697" on="0"/>
        <pt x="945" y="781" on="0"/>
        <pt x="802" y="817" on="0"/>
        <pt x="662" y="817" on="1"/>
        <pt x="432" y="817" on="1"/>
        <pt x="432" y="111" on="1"/>
        <pt x="850" y="111" on="1"/>
        <pt x="1139" y="111" on="0"/>
        <pt x="1139" y="-70" on="1"/>
        <pt x="1139" y="-130" on="0"/>
        <pt x="1057" y="-195" on="0"/>
        <pt x="979" y="-195" on="1"/>
        <pt x="979" y="-114" on="0"/>
        <pt x="935" y="-35" on="0"/>
        <pt x="834" y="0" on="0"/>
        <pt x="739" y="0" on="1"/>
        <pt x="225" y="0" on="1"/>
        <pt x="225" y="1237" on="1"/>
        <pt x="225" y="1287" on="0"/>
        <pt x="190" y="1348" on="0"/>
        <pt x="123" y="1376" on="0"/>
        <pt x="57" y="1376" on="1"/>
        <pt x="31" y="1376" on="1"/>
        <pt x="31" y="1462" on="1"/>
        <pt x="432" y="1462" on="1"/>
        <pt x="432" y="928" on="1"/>
      </contour>
    </TTGlyph>
    <TTGlyph name="uni0538" xMin="205" yMin="-195" xMax="1221" yMax="1483">
      <contour>
        <pt x="1180" y="870" on="1"/>
        <pt x="973" y="870" on="1"/>
        <pt x="973" y="987" on="1"/>
        <pt x="973" y="1187" on="0"/>
        <pt x="841" y="1372" on="0"/>
        <pt x="692" y="1372" on="1"/>
        <pt x="549" y="1372" on="0"/>
        <pt x="412" y="1180" on="0"/>
        <pt x="412" y="987" on="1"/>
        <pt x="412" y="111" on="1"/>
        <pt x="932" y="111" on="1"/>
        <pt x="1221" y="111" on="0"/>
        <pt x="1221" y="-70" on="1"/>
        <pt x="1221" y="-129" on="0"/>
        <pt x="1138" y="-195" on="0"/>
        <pt x="1061" y="-195" on="1"/>
        <pt x="1061" y="-114" on="0"/>
        <pt x="1017" y="-35" on="0"/>
        <pt x="916" y="0" on="0"/>
        <pt x="821" y="0" on="1"/>
        <pt x="205" y="0" on="1"/>
        <pt x="205" y="905" on="1"/>
        <pt x="205" y="1208" on="0"/>
        <pt x="441" y="1483" on="0"/>
        <pt x="700" y="1483" on="1"/>
        <pt x="930" y="1483" on="0"/>
        <pt x="1180" y="1224" on="0"/>
        <pt x="1180" y="999" on="1"/>
      </contour>
    </TTGlyph>
    <TTGlyph name="uni0539" xMin="205" yMin="0" xMax="1479" yMax="1483">
      <contour>
        <pt x="205" y="0" on="1"/>
        <pt x="205" y="973" on="1"/>
        <pt x="205" y="1483" on="0"/>
        <pt x="684" y="1483" on="1"/>
        <pt x="911" y="1483" on="0"/>
        <pt x="1145" y="1259" on="0"/>
        <pt x="1165" y="1030" on="1"/>
        <pt x="1323" y="1020" on="0"/>
        <pt x="1479" y="933" on="0"/>
        <pt x="1479" y="852" on="1"/>
        <pt x="1479" y="813" on="0"/>
        <pt x="1410" y="756" on="0"/>
        <pt x="1364" y="756" on="1"/>
        <pt x="1355" y="848" on="0"/>
        <pt x="1258" y="926" on="0"/>
        <pt x="1169" y="932" on="1"/>
        <pt x="1167" y="489" on="0"/>
        <pt x="821" y="489" on="1"/>
        <pt x="661" y="489" on="0"/>
        <pt x="512" y="629" on="0"/>
        <pt x="512" y="752" on="1"/>
        <pt x="512" y="888" on="0"/>
        <pt x="728" y="1019" on="0"/>
        <pt x="958" y="1030" on="1"/>
        <pt x="928" y="1372" on="0"/>
        <pt x="676" y="1372" on="1"/>
        <pt x="543" y="1372" on="0"/>
        <pt x="412" y="1168" on="0"/>
        <pt x="412" y="975" on="1"/>
        <pt x="412" y="0" on="1"/>
      </contour>
      <contour>
        <pt x="819" y="588" on="1"/>
        <pt x="891" y="588" on="0"/>
        <pt x="961" y="752" on="0"/>
        <pt x="963" y="932" on="1"/>
        <pt x="826" y="927" on="0"/>
        <pt x="698" y="838" on="0"/>
        <pt x="698" y="750" on="1"/>
        <pt x="698" y="673" on="0"/>
        <pt x="761" y="588" on="0"/>
      </contour>
    </TTGlyph>
    <TTGlyph name="uni053A" xMin="78" yMin="-20" xMax="1376" yMax="1462">
      <contour>
        <pt x="1067" y="950" on="1"/>
        <pt x="1225" y="940" on="0"/>
        <pt x="1376" y="854" on="0"/>
        <pt x="1376" y="772" on="1"/>
        <pt x="1376" y="735" on="0"/>
        <pt x="1302" y="668" on="0"/>
        <pt x="1255" y="668" on="1"/>
        <pt x="1246" y="748" on="0"/>
        <pt x="1149" y="833" on="0"/>
        <pt x="1067" y="838" on="1"/>
        <pt x="1067" y="516" on="1"/>
        <pt x="1067" y="244" on="0"/>
        <pt x="833" y="-20" on="0"/>
        <pt x="588" y="-20" on="1"/>
        <pt x="343" y="-20" on="0"/>
        <pt x="78" y="223" on="0"/>
        <pt x="78" y="451" on="1"/>
        <pt x="78" y="697" on="0"/>
        <pt x="464" y="950" on="0"/>
        <pt x="825" y="950" on="1"/>
        <pt x="860" y="950" on="1"/>
        <pt x="860" y="1237" on="1"/>
        <pt x="860" y="1287" on="0"/>
        <pt x="825" y="1348" on="0"/>
        <pt x="758" y="1376" on="0"/>
        <pt x="692" y="1376" on="1"/>
        <pt x="666" y="1376" on="1"/>
        <pt x="666" y="1462" on="1"/>
        <pt x="1067" y="1462" on="1"/>
      </contour>
      <contour>
        <pt x="860" y="840" on="1"/>
        <pt x="825" y="840" on="1"/>
        <pt x="559" y="840" on="0"/>
        <pt x="299" y="643" on="0"/>
        <pt x="299" y="438" on="1"/>
        <pt x="299" y="264" on="0"/>
        <pt x="437" y="90" on="0"/>
        <pt x="580" y="90" on="1"/>
        <pt x="724" y="90" on="0"/>
        <pt x="860" y="291" on="0"/>
        <pt x="860" y="510" on="1"/>
      </contour>
    </TTGlyph>
    <TTGlyph name="uni053B" xMin="31" yMin="0" xMax="1200" yMax="1462">
      <contour>
        <pt x="993" y="553" on="1"/>
        <pt x="993" y="905" on="0"/>
        <pt x="731" y="905" on="1"/>
        <pt x="582" y="905" on="0"/>
        <pt x="432" y="754" on="0"/>
        <pt x="432" y="588" on="1"/>
        <pt x="432" y="0" on="1"/>
        <pt x="225" y="0" on="1"/>
        <pt x="225" y="1237" on="1"/>
        <pt x="225" y="1287" on="0"/>
        <pt x="190" y="1348" on="0"/>
        <pt x="123" y="1376" on="0"/>
        <pt x="57" y="1376" on="1"/>
        <pt x="31" y="1376" on="1"/>
        <pt x="31" y="1462" on="1"/>
        <pt x="432" y="1462" on="1"/>
        <pt x="432" y="1057" on="1"/>
        <pt x="432" y="999" on="0"/>
        <pt x="424" y="883" on="1"/>
        <pt x="434" y="883" on="1"/>
        <pt x="549" y="1028" on="0"/>
        <pt x="764" y="1028" on="1"/>
        <pt x="973" y="1028" on="0"/>
        <pt x="1200" y="801" on="0"/>
        <pt x="1200" y="573" on="1"/>
        <pt x="1200" y="444" on="1"/>
        <pt x="993" y="444" on="1"/>
      </contour>
    </TTGlyph>
    <TTGlyph name="uni053C" xMin="31" yMin="-283" xMax="1044" yMax="1462">
      <contour>
        <pt x="225" y="1237" on="1"/>
        <pt x="225" y="1287" on="0"/>
        <pt x="190" y="1348" on="0"/>
        <pt x="123" y="1376" on="0"/>
        <pt x="57" y="1376" on="1"/>
        <pt x="31" y="1376" on="1"/>
        <pt x="31" y="1462" on="1"/>
        <pt x="432" y="1462" on="1"/>
        <pt x="432" y="111" on="1"/>
        <pt x="680" y="111" on="1"/>
        <pt x="1044" y="111" on="0"/>
        <pt x="1044" y="-141" on="1"/>
        <pt x="1044" y="-203" on="0"/>
        <pt x="956" y="-283" on="0"/>
        <pt x="885" y="-283" on="1"/>
        <pt x="885" y="-124" on="0"/>
        <pt x="806" y="0" on="0"/>
        <pt x="698" y="0" on="1"/>
        <pt x="225" y="0" on="1"/>
      </contour>
    </TTGlyph>
    <TTGlyph name="uni053D" xMin="27" yMin="-20" xMax="1763" yMax="1462">
      <contour>
        <pt x="1556" y="872" on="1"/>
        <pt x="1556" y="943" on="0"/>
        <pt x="1480" y="1012" on="0"/>
        <pt x="1389" y="1012" on="1"/>
        <pt x="1362" y="1012" on="1"/>
        <pt x="1362" y="1098" on="1"/>
        <pt x="1763" y="1098" on="1"/>
        <pt x="1763" y="414" on="1"/>
        <pt x="1763" y="202" on="0"/>
        <pt x="1536" y="-20" on="0"/>
        <pt x="1327" y="-20" on="1"/>
        <pt x="1115" y="-20" on="0"/>
        <pt x="891" y="205" on="0"/>
        <pt x="891" y="416" on="1"/>
        <pt x="891" y="723" on="1"/>
        <pt x="891" y="851" on="0"/>
        <pt x="776" y="995" on="0"/>
        <pt x="670" y="995" on="1"/>
        <pt x="553" y="995" on="0"/>
        <pt x="432" y="844" on="0"/>
        <pt x="432" y="678" on="1"/>
        <pt x="432" y="0" on="1"/>
        <pt x="225" y="0" on="1"/>
        <pt x="225" y="1237" on="1"/>
        <pt x="225" y="1287" on="0"/>
        <pt x="190" y="1348" on="0"/>
        <pt x="123" y="1376" on="0"/>
        <pt x="57" y="1376" on="1"/>
        <pt x="27" y="1376" on="1"/>
        <pt x="27" y="1462" on="1"/>
        <pt x="432" y="1462" on="1"/>
        <pt x="432" y="1147" on="1"/>
        <pt x="432" y="1089" on="0"/>
        <pt x="424" y="973" on="1"/>
        <pt x="434" y="973" on="1"/>
        <pt x="487" y="1050" on="0"/>
        <pt x="641" y="1118" on="0"/>
        <pt x="748" y="1118" on="1"/>
        <pt x="913" y="1118" on="0"/>
        <pt x="1098" y="904" on="0"/>
        <pt x="1098" y="709" on="1"/>
        <pt x="1098" y="391" on="1"/>
        <pt x="1098" y="250" on="0"/>
        <pt x="1222" y="90" on="0"/>
        <pt x="1327" y="90" on="1"/>
        <pt x="1433" y="90" on="0"/>
        <pt x="1556" y="252" on="0"/>
        <pt x="1556" y="391" on="1"/>
      </contour>
    </TTGlyph>
    <TTGlyph name="uni053E" xMin="82" yMin="-20" xMax="1421" yMax="1483">
      <contour>
        <pt x="1081" y="1372" on="1"/>
        <pt x="841" y="1372" on="0"/>
        <pt x="672" y="1268" on="1"/>
        <pt x="890" y="1244" on="0"/>
        <pt x="1224" y="1064" on="0"/>
        <pt x="1403" y="771" on="0"/>
        <pt x="1403" y="588" on="1"/>
        <pt x="1403" y="415" on="0"/>
        <pt x="1242" y="135" on="0"/>
        <pt x="949" y="-20" on="0"/>
        <pt x="760" y="-20" on="1"/>
        <pt x="567" y="-20" on="0"/>
        <pt x="274" y="129" on="0"/>
        <pt x="115" y="399" on="0"/>
        <pt x="115" y="571" on="1"/>
        <pt x="115" y="745" on="0"/>
        <pt x="245" y="1056" on="0"/>
        <pt x="362" y="1180" on="1"/>
        <pt x="224" y="1194" on="0"/>
        <pt x="82" y="1279" on="0"/>
        <pt x="82" y="1356" on="1"/>
        <pt x="82" y="1416" on="0"/>
        <pt x="163" y="1483" on="0"/>
        <pt x="242" y="1483" on="1"/>
        <pt x="242" y="1398" on="0"/>
        <pt x="284" y="1319" on="0"/>
        <pt x="377" y="1281" on="0"/>
        <pt x="467" y="1276" on="1"/>
        <pt x="591" y="1373" on="0"/>
        <pt x="902" y="1483" on="0"/>
        <pt x="1081" y="1483" on="1"/>
        <pt x="1242" y="1483" on="0"/>
        <pt x="1421" y="1408" on="0"/>
        <pt x="1421" y="1339" on="1"/>
        <pt x="1421" y="1308" on="0"/>
        <pt x="1397" y="1276" on="1"/>
        <pt x="1336" y="1327" on="0"/>
        <pt x="1193" y="1372" on="0"/>
      </contour>
      <contour>
        <pt x="1176" y="586" on="1"/>
        <pt x="1176" y="873" on="0"/>
        <pt x="859" y="1167" on="0"/>
        <pt x="551" y="1174" on="1"/>
        <pt x="342" y="957" on="0"/>
        <pt x="342" y="571" on="1"/>
        <pt x="342" y="346" on="0"/>
        <pt x="563" y="90" on="0"/>
        <pt x="760" y="90" on="1"/>
        <pt x="960" y="90" on="0"/>
        <pt x="1176" y="347" on="0"/>
      </contour>
    </TTGlyph>
    <TTGlyph name="uni053F" xMin="31" yMin="0" xMax="1180" yMax="1462">
      <contour>
        <pt x="412" y="866" on="1"/>
        <pt x="412" y="549" on="0"/>
        <pt x="674" y="549" on="1"/>
        <pt x="823" y="549" on="0"/>
        <pt x="973" y="702" on="0"/>
        <pt x="973" y="872" on="1"/>
        <pt x="973" y="1098" on="1"/>
        <pt x="1180" y="1098" on="1"/>
        <pt x="1180" y="0" on="1"/>
        <pt x="973" y="0" on="1"/>
        <pt x="973" y="397" on="1"/>
        <pt x="973" y="455" on="0"/>
        <pt x="981" y="571" on="1"/>
        <pt x="971" y="571" on="1"/>
        <pt x="936" y="504" on="0"/>
        <pt x="760" y="426" on="0"/>
        <pt x="641" y="426" on="1"/>
        <pt x="435" y="426" on="0"/>
        <pt x="205" y="661" on="0"/>
        <pt x="205" y="872" on="1"/>
        <pt x="205" y="1237" on="1"/>
        <pt x="205" y="1287" on="0"/>
        <pt x="170" y="1348" on="0"/>
        <pt x="103" y="1376" on="0"/>
        <pt x="37" y="1376" on="1"/>
        <pt x="31" y="1376" on="1"/>
        <pt x="31" y="1462" on="1"/>
        <pt x="412" y="1462" on="1"/>
      </contour>
    </TTGlyph>
    <TTGlyph name="uni0540" xMin="41" yMin="-203" xMax="854" yMax="1483">
      <contour>
        <pt x="41" y="346" on="1"/>
        <pt x="41" y="357" on="0"/>
        <pt x="48" y="385" on="0"/>
        <pt x="70" y="416" on="1"/>
        <pt x="565" y="1126" on="1"/>
        <pt x="451" y="1201" on="0"/>
        <pt x="348" y="1313" on="0"/>
        <pt x="348" y="1370" on="1"/>
        <pt x="348" y="1414" on="0"/>
        <pt x="420" y="1483" on="0"/>
        <pt x="473" y="1483" on="1"/>
        <pt x="528" y="1483" on="0"/>
        <pt x="586" y="1454" on="1"/>
        <pt x="551" y="1404" on="0"/>
        <pt x="551" y="1356" on="1"/>
        <pt x="551" y="1286" on="0"/>
        <pt x="622" y="1184" on="0"/>
        <pt x="698" y="1133" on="1"/>
        <pt x="223" y="457" on="1"/>
        <pt x="854" y="201" on="1"/>
        <pt x="690" y="-203" on="1"/>
        <pt x="610" y="-178" on="1"/>
        <pt x="635" y="-122" on="0"/>
        <pt x="635" y="-41" on="1"/>
        <pt x="635" y="13" on="0"/>
        <pt x="589" y="86" on="0"/>
        <pt x="532" y="111" on="1"/>
        <pt x="102" y="281" on="1"/>
        <pt x="73" y="292" on="0"/>
        <pt x="41" y="320" on="0"/>
      </contour>
    </TTGlyph>
    <TTGlyph name="uni0541" xMin="63" yMin="-92" xMax="1194" yMax="1483">
      <contour>
        <pt x="377" y="-20" on="1"/>
        <pt x="226" y="-20" on="0"/>
        <pt x="63" y="103" on="0"/>
        <pt x="63" y="219" on="1"/>
        <pt x="63" y="332" on="0"/>
        <pt x="274" y="467" on="0"/>
        <pt x="444" y="467" on="1"/>
        <pt x="614" y="467" on="0"/>
        <pt x="786" y="414" on="1"/>
        <pt x="909" y="651" on="0"/>
        <pt x="909" y="946" on="1"/>
        <pt x="909" y="1157" on="0"/>
        <pt x="760" y="1372" on="0"/>
        <pt x="594" y="1372" on="1"/>
        <pt x="440" y="1372" on="0"/>
        <pt x="297" y="1175" on="0"/>
        <pt x="297" y="975" on="1"/>
        <pt x="297" y="942" on="1"/>
        <pt x="90" y="942" on="1"/>
        <pt x="90" y="973" on="1"/>
        <pt x="90" y="1128" on="0"/>
        <pt x="207" y="1359" on="0"/>
        <pt x="432" y="1483" on="0"/>
        <pt x="590" y="1483" on="1"/>
        <pt x="853" y="1483" on="0"/>
        <pt x="1130" y="1206" on="0"/>
        <pt x="1130" y="940" on="1"/>
        <pt x="1130" y="623" on="0"/>
        <pt x="944" y="346" on="1"/>
        <pt x="1059" y="284" on="0"/>
        <pt x="1194" y="129" on="0"/>
        <pt x="1194" y="51" on="1"/>
        <pt x="1194" y="-15" on="0"/>
        <pt x="1124" y="-83" on="0"/>
        <pt x="1073" y="-92" on="1"/>
        <pt x="1071" y="-2" on="0"/>
        <pt x="958" y="168" on="0"/>
        <pt x="856" y="236" on="1"/>
        <pt x="745" y="112" on="0"/>
        <pt x="493" y="-20" on="0"/>
      </contour>
      <contour>
        <pt x="379" y="90" on="1"/>
        <pt x="468" y="90" on="0"/>
        <pt x="646" y="205" on="0"/>
        <pt x="719" y="305" on="1"/>
        <pt x="590" y="356" on="0"/>
        <pt x="446" y="356" on="1"/>
        <pt x="344" y="356" on="0"/>
        <pt x="244" y="283" on="0"/>
        <pt x="244" y="221" on="1"/>
        <pt x="244" y="153" on="0"/>
        <pt x="310" y="90" on="0"/>
      </contour>
    </TTGlyph>
    <TTGlyph name="uni0542" xMin="92" yMin="-199" xMax="1479" yMax="1483">
      <contour>
        <pt x="860" y="1012" on="1"/>
        <pt x="860" y="1189" on="0"/>
        <pt x="718" y="1372" on="0"/>
        <pt x="580" y="1372" on="1"/>
        <pt x="431" y="1372" on="0"/>
        <pt x="299" y="1186" on="0"/>
        <pt x="299" y="989" on="1"/>
        <pt x="299" y="870" on="1"/>
        <pt x="92" y="870" on="1"/>
        <pt x="92" y="999" on="1"/>
        <pt x="92" y="1229" on="0"/>
        <pt x="354" y="1483" on="0"/>
        <pt x="588" y="1483" on="1"/>
        <pt x="824" y="1483" on="0"/>
        <pt x="1067" y="1241" on="0"/>
        <pt x="1067" y="1006" on="1"/>
        <pt x="1067" y="111" on="1"/>
        <pt x="1279" y="111" on="0"/>
        <pt x="1479" y="21" on="0"/>
        <pt x="1479" y="-88" on="1"/>
        <pt x="1479" y="-141" on="0"/>
        <pt x="1393" y="-199" on="0"/>
        <pt x="1319" y="-199" on="1"/>
        <pt x="1319" y="-97" on="0"/>
        <pt x="1205" y="0" on="0"/>
        <pt x="1067" y="0" on="1"/>
        <pt x="860" y="0" on="1"/>
      </contour>
    </TTGlyph>
    <TTGlyph name="uni0543" xMin="72" yMin="0" xMax="1171" yMax="1483">
      <contour>
        <pt x="956" y="1321" on="1"/>
        <pt x="811" y="1321" on="0"/>
        <pt x="680" y="1249" on="1"/>
        <pt x="914" y="1129" on="0"/>
        <pt x="1171" y="555" on="0"/>
        <pt x="1171" y="150" on="1"/>
        <pt x="1171" y="0" on="1"/>
        <pt x="72" y="0" on="1"/>
        <pt x="72" y="61" on="1"/>
        <pt x="72" y="395" on="0"/>
        <pt x="272" y="1006" on="0"/>
        <pt x="444" y="1204" on="1"/>
        <pt x="398" y="1214" on="0"/>
        <pt x="348" y="1214" on="1"/>
        <pt x="223" y="1214" on="0"/>
        <pt x="129" y="1180" on="1"/>
        <pt x="129" y="1257" on="0"/>
        <pt x="235" y="1325" on="0"/>
        <pt x="356" y="1325" on="1"/>
        <pt x="453" y="1325" on="0"/>
        <pt x="541" y="1303" on="1"/>
        <pt x="746" y="1483" on="0"/>
        <pt x="985" y="1483" on="1"/>
        <pt x="1069" y="1483" on="0"/>
        <pt x="1167" y="1402" on="0"/>
        <pt x="1167" y="1337" on="1"/>
        <pt x="1167" y="1298" on="0"/>
        <pt x="1141" y="1255" on="1"/>
        <pt x="1061" y="1321" on="0"/>
      </contour>
      <contour>
        <pt x="950" y="137" on="1"/>
        <pt x="941" y="563" on="0"/>
        <pt x="739" y="1074" on="0"/>
        <pt x="563" y="1165" on="1"/>
        <pt x="445" y="1058" on="0"/>
        <pt x="278" y="723" on="0"/>
        <pt x="195" y="325" on="0"/>
        <pt x="195" y="137" on="1"/>
      </contour>
    </TTGlyph>
    <TTGlyph name="uni0544" xMin="31" yMin="-20" xMax="1694" yMax="1462">
      <contour>
        <pt x="1282" y="1462" on="1"/>
        <pt x="1494" y="1462" on="0"/>
        <pt x="1694" y="1372" on="0"/>
        <pt x="1694" y="1264" on="1"/>
        <pt x="1694" y="1211" on="0"/>
        <pt x="1608" y="1153" on="0"/>
        <pt x="1534" y="1153" on="1"/>
        <pt x="1534" y="1255" on="0"/>
        <pt x="1420" y="1352" on="0"/>
        <pt x="1282" y="1352" on="1"/>
        <pt x="1282" y="418" on="1"/>
        <pt x="1282" y="208" on="0"/>
        <pt x="1011" y="-20" on="0"/>
        <pt x="762" y="-20" on="1"/>
        <pt x="491" y="-20" on="0"/>
        <pt x="225" y="208" on="0"/>
        <pt x="225" y="442" on="1"/>
        <pt x="225" y="1237" on="1"/>
        <pt x="225" y="1287" on="0"/>
        <pt x="190" y="1348" on="0"/>
        <pt x="123" y="1376" on="0"/>
        <pt x="57" y="1376" on="1"/>
        <pt x="31" y="1376" on="1"/>
        <pt x="31" y="1462" on="1"/>
        <pt x="432" y="1462" on="1"/>
        <pt x="432" y="418" on="1"/>
        <pt x="432" y="257" on="0"/>
        <pt x="596" y="90" on="0"/>
        <pt x="754" y="90" on="1"/>
        <pt x="908" y="90" on="0"/>
        <pt x="1075" y="259" on="0"/>
        <pt x="1075" y="410" on="1"/>
        <pt x="1075" y="1462" on="1"/>
      </contour>
    </TTGlyph>
    <TTGlyph name="uni0545" xMin="92" yMin="-23" xMax="1110" yMax="1483">
      <contour>
        <pt x="166" y="705" on="1"/>
        <pt x="166" y="815" on="1"/>
        <pt x="508" y="815" on="1"/>
        <pt x="679" y="815" on="0"/>
        <pt x="854" y="980" on="0"/>
        <pt x="854" y="1126" on="1"/>
        <pt x="854" y="1372" on="0"/>
        <pt x="582" y="1372" on="1"/>
        <pt x="440" y="1372" on="0"/>
        <pt x="303" y="1232" on="0"/>
        <pt x="303" y="1075" on="1"/>
        <pt x="127" y="1075" on="0"/>
        <pt x="127" y="1208" on="1"/>
        <pt x="127" y="1334" on="0"/>
        <pt x="368" y="1483" on="0"/>
        <pt x="582" y="1483" on="1"/>
        <pt x="817" y="1483" on="0"/>
        <pt x="1069" y="1305" on="0"/>
        <pt x="1069" y="1141" on="1"/>
        <pt x="1069" y="1001" on="0"/>
        <pt x="899" y="811" on="0"/>
        <pt x="739" y="774" on="1"/>
        <pt x="739" y="764" on="1"/>
        <pt x="927" y="741" on="0"/>
        <pt x="1110" y="563" on="0"/>
        <pt x="1110" y="418" on="1"/>
        <pt x="1110" y="209" on="0"/>
        <pt x="818" y="-23" on="0"/>
        <pt x="561" y="-23" on="1"/>
        <pt x="414" y="-23" on="0"/>
        <pt x="203" y="43" on="0"/>
        <pt x="92" y="158" on="0"/>
        <pt x="92" y="231" on="1"/>
        <pt x="92" y="307" on="0"/>
        <pt x="184" y="383" on="0"/>
        <pt x="264" y="383" on="1"/>
        <pt x="264" y="301" on="0"/>
        <pt x="337" y="165" on="0"/>
        <pt x="469" y="88" on="0"/>
        <pt x="559" y="88" on="1"/>
        <pt x="883" y="88" on="0"/>
        <pt x="883" y="420" on="1"/>
        <pt x="883" y="555" on="0"/>
        <pt x="699" y="705" on="0"/>
        <pt x="532" y="705" on="1"/>
      </contour>
    </TTGlyph>
    <TTGlyph name="uni0546" xMin="-20" yMin="-20" xMax="1243" yMax="1638">
      <contour>
        <pt x="1036" y="592" on="1"/>
        <pt x="1243" y="592" on="1"/>
        <pt x="1243" y="463" on="1"/>
        <pt x="1243" y="228" on="0"/>
        <pt x="997" y="-20" on="0"/>
        <pt x="764" y="-20" on="1"/>
        <pt x="521" y="-20" on="0"/>
        <pt x="268" y="233" on="0"/>
        <pt x="268" y="489" on="1"/>
        <pt x="268" y="1354" on="1"/>
        <pt x="112" y="1364" on="0"/>
        <pt x="-20" y="1445" on="0"/>
        <pt x="-20" y="1528" on="1"/>
        <pt x="-20" y="1581" on="0"/>
        <pt x="65" y="1638" on="0"/>
        <pt x="139" y="1638" on="1"/>
        <pt x="139" y="1546" on="0"/>
        <pt x="228" y="1462" on="0"/>
        <pt x="342" y="1462" on="1"/>
        <pt x="475" y="1462" on="1"/>
        <pt x="475" y="475" on="1"/>
        <pt x="475" y="282" on="0"/>
        <pt x="612" y="90" on="0"/>
        <pt x="756" y="90" on="1"/>
        <pt x="904" y="90" on="0"/>
        <pt x="1036" y="274" on="0"/>
        <pt x="1036" y="475" on="1"/>
      </contour>
    </TTGlyph>
    <TTGlyph name="uni0547" xMin="133" yMin="-20" xMax="1200" yMax="1483">
      <contour>
        <pt x="1200" y="463" on="1"/>
        <pt x="1200" y="235" on="0"/>
        <pt x="918" y="-20" on="0"/>
        <pt x="664" y="-20" on="1"/>
        <pt x="409" y="-20" on="0"/>
        <pt x="133" y="268" on="0"/>
        <pt x="133" y="524" on="1"/>
        <pt x="133" y="678" on="0"/>
        <pt x="296" y="951" on="0"/>
        <pt x="599" y="1148" on="0"/>
        <pt x="791" y="1194" on="1"/>
        <pt x="184" y="1315" on="1"/>
        <pt x="219" y="1483" on="1"/>
        <pt x="1128" y="1307" on="1"/>
        <pt x="1094" y="1137" on="1"/>
        <pt x="1034" y="1137" on="1"/>
        <pt x="855" y="1137" on="0"/>
        <pt x="537" y="978" on="0"/>
        <pt x="354" y="697" on="0"/>
        <pt x="354" y="520" on="1"/>
        <pt x="354" y="302" on="0"/>
        <pt x="508" y="90" on="0"/>
        <pt x="672" y="90" on="1"/>
        <pt x="839" y="90" on="0"/>
        <pt x="993" y="284" on="0"/>
        <pt x="993" y="487" on="1"/>
        <pt x="993" y="604" on="1"/>
        <pt x="1200" y="604" on="1"/>
      </contour>
    </TTGlyph>
    <TTGlyph name="uni0548" xMin="205" yMin="0" xMax="1262" yMax="1483">
      <contour>
        <pt x="1055" y="0" on="1"/>
        <pt x="1055" y="1040" on="1"/>
        <pt x="1055" y="1194" on="0"/>
        <pt x="884" y="1372" on="0"/>
        <pt x="733" y="1372" on="1"/>
        <pt x="579" y="1372" on="0"/>
        <pt x="412" y="1195" on="0"/>
        <pt x="412" y="1032" on="1"/>
        <pt x="412" y="0" on="1"/>
        <pt x="205" y="0" on="1"/>
        <pt x="205" y="1020" on="1"/>
        <pt x="205" y="1253" on="0"/>
        <pt x="469" y="1483" on="0"/>
        <pt x="741" y="1483" on="1"/>
        <pt x="991" y="1483" on="0"/>
        <pt x="1262" y="1253" on="0"/>
        <pt x="1262" y="1044" on="1"/>
        <pt x="1262" y="0" on="1"/>
      </contour>
    </TTGlyph>
    <TTGlyph name="uni0549" xMin="92" yMin="-20" xMax="1159" yMax="1483">
      <contour>
        <pt x="92" y="977" on="1"/>
        <pt x="92" y="1221" on="0"/>
        <pt x="372" y="1483" on="0"/>
        <pt x="629" y="1483" on="1"/>
        <pt x="885" y="1483" on="0"/>
        <pt x="1159" y="1195" on="0"/>
        <pt x="1159" y="938" on="1"/>
        <pt x="1159" y="792" on="0"/>
        <pt x="991" y="526" on="0"/>
        <pt x="671" y="319" on="0"/>
        <pt x="461" y="268" on="1"/>
        <pt x="1108" y="147" on="1"/>
        <pt x="1073" y="-20" on="1"/>
        <pt x="123" y="156" on="1"/>
        <pt x="158" y="326" on="1"/>
        <pt x="217" y="326" on="1"/>
        <pt x="399" y="326" on="0"/>
        <pt x="741" y="488" on="0"/>
        <pt x="938" y="770" on="0"/>
        <pt x="938" y="942" on="1"/>
        <pt x="938" y="1160" on="0"/>
        <pt x="785" y="1372" on="0"/>
        <pt x="621" y="1372" on="1"/>
        <pt x="455" y="1372" on="0"/>
        <pt x="299" y="1179" on="0"/>
        <pt x="299" y="975" on="1"/>
        <pt x="299" y="870" on="1"/>
        <pt x="92" y="870" on="1"/>
      </contour>
    </TTGlyph>
    <TTGlyph name="uni054A" xMin="143" yMin="0" xMax="1460" yMax="1483">
      <contour>
        <pt x="1253" y="0" on="1"/>
        <pt x="1253" y="1040" on="1"/>
        <pt x="1253" y="1188" on="0"/>
        <pt x="1075" y="1351" on="0"/>
        <pt x="905" y="1366" on="1"/>
        <pt x="905" y="258" on="1"/>
        <pt x="698" y="369" on="1"/>
        <pt x="698" y="1368" on="1"/>
        <pt x="350" y="1337" on="0"/>
        <pt x="350" y="1032" on="1"/>
        <pt x="350" y="555" on="1"/>
        <pt x="143" y="666" on="1"/>
        <pt x="143" y="1020" on="1"/>
        <pt x="143" y="1253" on="0"/>
        <pt x="476" y="1483" on="0"/>
        <pt x="813" y="1483" on="1"/>
        <pt x="1125" y="1483" on="0"/>
        <pt x="1460" y="1253" on="0"/>
        <pt x="1460" y="1044" on="1"/>
        <pt x="1460" y="0" on="1"/>
      </contour>
    </TTGlyph>
    <TTGlyph name="uni054B" xMin="123" yMin="-311" xMax="1262" yMax="1483">
      <contour>
        <pt x="330" y="924" on="1"/>
        <pt x="330" y="715" on="0"/>
        <pt x="560" y="471" on="0"/>
        <pt x="764" y="467" on="1"/>
        <pt x="873" y="588" on="0"/>
        <pt x="969" y="826" on="0"/>
        <pt x="969" y="965" on="1"/>
        <pt x="969" y="1372" on="0"/>
        <pt x="651" y="1372" on="1"/>
        <pt x="487" y="1372" on="0"/>
        <pt x="330" y="1149" on="0"/>
      </contour>
      <contour>
        <pt x="143" y="111" on="1"/>
        <pt x="214" y="111" on="0"/>
        <pt x="327" y="134" on="0"/>
        <pt x="435" y="185" on="0"/>
        <pt x="599" y="310" on="0"/>
        <pt x="659" y="365" on="1"/>
        <pt x="415" y="399" on="0"/>
        <pt x="123" y="701" on="0"/>
        <pt x="123" y="920" on="1"/>
        <pt x="123" y="1187" on="0"/>
        <pt x="401" y="1483" on="0"/>
        <pt x="659" y="1483" on="1"/>
        <pt x="824" y="1483" on="0"/>
        <pt x="1064" y="1355" on="0"/>
        <pt x="1190" y="1121" on="0"/>
        <pt x="1190" y="967" on="1"/>
        <pt x="1190" y="739" on="0"/>
        <pt x="833" y="302" on="0"/>
        <pt x="492" y="111" on="1"/>
        <pt x="932" y="111" on="1"/>
        <pt x="1099" y="111" on="0"/>
        <pt x="1262" y="-7" on="0"/>
        <pt x="1262" y="-135" on="1"/>
        <pt x="1262" y="-216" on="0"/>
        <pt x="1180" y="-307" on="0"/>
        <pt x="1102" y="-307" on="1"/>
        <pt x="1102" y="-175" on="0"/>
        <pt x="1062" y="-51" on="0"/>
        <pt x="966" y="0" on="0"/>
        <pt x="862" y="0" on="1"/>
        <pt x="350" y="0" on="1"/>
        <pt x="350" y="-311" on="1"/>
        <pt x="143" y="-311" on="1"/>
      </contour>
    </TTGlyph>
    <TTGlyph name="uni054C" xMin="205" yMin="0" xMax="1591" yMax="1483">
      <contour>
        <pt x="1180" y="0" on="1"/>
        <pt x="973" y="0" on="1"/>
        <pt x="973" y="1012" on="1"/>
        <pt x="973" y="1191" on="0"/>
        <pt x="828" y="1372" on="0"/>
        <pt x="692" y="1372" on="1"/>
        <pt x="549" y="1372" on="0"/>
        <pt x="412" y="1180" on="0"/>
        <pt x="412" y="987" on="1"/>
        <pt x="412" y="0" on="1"/>
        <pt x="205" y="0" on="1"/>
        <pt x="205" y="973" on="1"/>
        <pt x="205" y="1235" on="0"/>
        <pt x="443" y="1483" on="0"/>
        <pt x="700" y="1483" on="1"/>
        <pt x="937" y="1483" on="0"/>
        <pt x="1180" y="1241" on="0"/>
        <pt x="1180" y="1006" on="1"/>
        <pt x="1180" y="838" on="1"/>
        <pt x="1391" y="838" on="0"/>
        <pt x="1591" y="747" on="0"/>
        <pt x="1591" y="639" on="1"/>
        <pt x="1591" y="586" on="0"/>
        <pt x="1505" y="528" on="0"/>
        <pt x="1432" y="528" on="1"/>
        <pt x="1432" y="631" on="0"/>
        <pt x="1317" y="727" on="0"/>
        <pt x="1180" y="727" on="1"/>
      </contour>
    </TTGlyph>
    <TTGlyph name="uni054D" xMin="31" yMin="-20" xMax="1282" yMax="1462">
      <contour>
        <pt x="432" y="418" on="1"/>
        <pt x="432" y="257" on="0"/>
        <pt x="596" y="90" on="0"/>
        <pt x="754" y="90" on="1"/>
        <pt x="908" y="90" on="0"/>
        <pt x="1075" y="259" on="0"/>
        <pt x="1075" y="410" on="1"/>
        <pt x="1075" y="1237" on="1"/>
        <pt x="1075" y="1287" on="0"/>
        <pt x="1040" y="1348" on="0"/>
        <pt x="973" y="1376" on="0"/>
        <pt x="907" y="1376" on="1"/>
        <pt x="881" y="1376" on="1"/>
        <pt x="881" y="1462" on="1"/>
        <pt x="1282" y="1462" on="1"/>
        <pt x="1282" y="418" on="1"/>
        <pt x="1282" y="208" on="0"/>
        <pt x="1011" y="-20" on="0"/>
        <pt x="762" y="-20" on="1"/>
        <pt x="491" y="-20" on="0"/>
        <pt x="225" y="208" on="0"/>
        <pt x="225" y="442" on="1"/>
        <pt x="225" y="1237" on="1"/>
        <pt x="225" y="1287" on="0"/>
        <pt x="190" y="1348" on="0"/>
        <pt x="123" y="1376" on="0"/>
        <pt x="57" y="1376" on="1"/>
        <pt x="31" y="1376" on="1"/>
        <pt x="31" y="1462" on="1"/>
        <pt x="432" y="1462" on="1"/>
      </contour>
    </TTGlyph>
    <TTGlyph name="uni054E" xMin="41" yMin="-199" xMax="1571" yMax="1462">
      <contour>
        <pt x="952" y="0" on="1"/>
        <pt x="952" y="397" on="1"/>
        <pt x="952" y="441" on="0"/>
        <pt x="961" y="571" on="1"/>
        <pt x="950" y="571" on="1"/>
        <pt x="915" y="503" on="0"/>
        <pt x="738" y="426" on="0"/>
        <pt x="621" y="426" on="1"/>
        <pt x="414" y="426" on="0"/>
        <pt x="184" y="660" on="0"/>
        <pt x="184" y="872" on="1"/>
        <pt x="184" y="940" on="0"/>
        <pt x="118" y="1012" on="0"/>
        <pt x="57" y="1012" on="1"/>
        <pt x="41" y="1012" on="1"/>
        <pt x="41" y="1098" on="1"/>
        <pt x="391" y="1098" on="1"/>
        <pt x="391" y="866" on="1"/>
        <pt x="391" y="549" on="0"/>
        <pt x="653" y="549" on="1"/>
        <pt x="802" y="549" on="0"/>
        <pt x="952" y="700" on="0"/>
        <pt x="952" y="866" on="1"/>
        <pt x="952" y="1237" on="1"/>
        <pt x="952" y="1287" on="0"/>
        <pt x="917" y="1348" on="0"/>
        <pt x="850" y="1376" on="0"/>
        <pt x="784" y="1376" on="1"/>
        <pt x="758" y="1376" on="1"/>
        <pt x="758" y="1462" on="1"/>
        <pt x="1159" y="1462" on="1"/>
        <pt x="1159" y="111" on="1"/>
        <pt x="1371" y="111" on="0"/>
        <pt x="1571" y="21" on="0"/>
        <pt x="1571" y="-88" on="1"/>
        <pt x="1571" y="-141" on="0"/>
        <pt x="1485" y="-199" on="0"/>
        <pt x="1411" y="-199" on="1"/>
        <pt x="1411" y="-97" on="0"/>
        <pt x="1297" y="0" on="0"/>
        <pt x="1159" y="0" on="1"/>
      </contour>
    </TTGlyph>
    <TTGlyph name="uni054F" xMin="98" yMin="-20" xMax="1010" yMax="1483">
      <contour>
        <pt x="506" y="-20" on="1"/>
        <pt x="316" y="-20" on="0"/>
        <pt x="98" y="131" on="0"/>
        <pt x="98" y="268" on="1"/>
        <pt x="98" y="330" on="0"/>
        <pt x="175" y="406" on="0"/>
        <pt x="246" y="406" on="1"/>
        <pt x="253" y="251" on="0"/>
        <pt x="398" y="80" on="0"/>
        <pt x="522" y="80" on="1"/>
        <pt x="660" y="80" on="0"/>
        <pt x="815" y="213" on="0"/>
        <pt x="815" y="338" on="1"/>
        <pt x="815" y="447" on="0"/>
        <pt x="681" y="582" on="0"/>
        <pt x="498" y="657" on="1"/>
        <pt x="296" y="740" on="0"/>
        <pt x="121" y="952" on="0"/>
        <pt x="121" y="1112" on="1"/>
        <pt x="121" y="1282" on="0"/>
        <pt x="368" y="1483" on="0"/>
        <pt x="569" y="1483" on="1"/>
        <pt x="681" y="1483" on="0"/>
        <pt x="856" y="1423" on="0"/>
        <pt x="952" y="1316" on="0"/>
        <pt x="952" y="1253" on="1"/>
        <pt x="952" y="1187" on="0"/>
        <pt x="865" y="1120" on="0"/>
        <pt x="791" y="1120" on="1"/>
        <pt x="791" y="1243" on="0"/>
        <pt x="669" y="1380" on="0"/>
        <pt x="561" y="1380" on="1"/>
        <pt x="444" y="1380" on="0"/>
        <pt x="311" y="1253" on="0"/>
        <pt x="311" y="1147" on="1"/>
        <pt x="311" y="1028" on="0"/>
        <pt x="443" y="891" on="0"/>
        <pt x="629" y="815" on="1"/>
        <pt x="836" y="730" on="0"/>
        <pt x="1010" y="531" on="0"/>
        <pt x="1010" y="391" on="1"/>
        <pt x="1010" y="200" on="0"/>
        <pt x="741" y="-20" on="0"/>
      </contour>
    </TTGlyph>
    <TTGlyph name="uni0550" xMin="205" yMin="0" xMax="1180" yMax="1483">
      <contour>
        <pt x="1180" y="870" on="1"/>
        <pt x="973" y="870" on="1"/>
        <pt x="973" y="987" on="1"/>
        <pt x="973" y="1187" on="0"/>
        <pt x="841" y="1372" on="0"/>
        <pt x="692" y="1372" on="1"/>
        <pt x="549" y="1372" on="0"/>
        <pt x="412" y="1180" on="0"/>
        <pt x="412" y="987" on="1"/>
        <pt x="412" y="0" on="1"/>
        <pt x="205" y="0" on="1"/>
        <pt x="205" y="973" on="1"/>
        <pt x="205" y="1483" on="0"/>
        <pt x="694" y="1483" on="1"/>
        <pt x="928" y="1483" on="0"/>
        <pt x="1180" y="1232" on="0"/>
        <pt x="1180" y="999" on="1"/>
      </contour>
    </TTGlyph>
    <TTGlyph name="uni0551" xMin="92" yMin="-23" xMax="1110" yMax="1483">
      <contour>
        <pt x="104" y="621" on="1"/>
        <pt x="104" y="698" on="0"/>
        <pt x="270" y="790" on="0"/>
        <pt x="424" y="801" on="1"/>
        <pt x="424" y="811" on="1"/>
        <pt x="254" y="851" on="0"/>
        <pt x="94" y="1022" on="0"/>
        <pt x="94" y="1157" on="1"/>
        <pt x="94" y="1305" on="0"/>
        <pt x="362" y="1483" on="0"/>
        <pt x="582" y="1483" on="1"/>
        <pt x="806" y="1483" on="0"/>
        <pt x="1069" y="1301" on="0"/>
        <pt x="1069" y="1157" on="1"/>
        <pt x="1069" y="1023" on="0"/>
        <pt x="910" y="850" on="0"/>
        <pt x="739" y="811" on="1"/>
        <pt x="739" y="801" on="1"/>
        <pt x="851" y="787" on="0"/>
        <pt x="1016" y="694" on="0"/>
        <pt x="1110" y="540" on="0"/>
        <pt x="1110" y="434" on="1"/>
        <pt x="1110" y="292" on="0"/>
        <pt x="972" y="85" on="0"/>
        <pt x="723" y="-23" on="0"/>
        <pt x="561" y="-23" on="1"/>
        <pt x="414" y="-23" on="0"/>
        <pt x="203" y="43" on="0"/>
        <pt x="92" y="158" on="0"/>
        <pt x="92" y="231" on="1"/>
        <pt x="92" y="307" on="0"/>
        <pt x="184" y="383" on="0"/>
        <pt x="264" y="383" on="1"/>
        <pt x="264" y="301" on="0"/>
        <pt x="337" y="165" on="0"/>
        <pt x="469" y="88" on="0"/>
        <pt x="559" y="88" on="1"/>
        <pt x="717" y="88" on="0"/>
        <pt x="883" y="266" on="0"/>
        <pt x="883" y="436" on="1"/>
        <pt x="883" y="579" on="0"/>
        <pt x="712" y="741" on="0"/>
        <pt x="571" y="741" on="1"/>
        <pt x="482" y="741" on="0"/>
        <pt x="342" y="683" on="0"/>
        <pt x="264" y="581" on="0"/>
        <pt x="264" y="522" on="1"/>
        <pt x="187" y="522" on="0"/>
        <pt x="104" y="575" on="0"/>
      </contour>
      <contour>
        <pt x="309" y="1143" on="1"/>
        <pt x="309" y="1015" on="0"/>
        <pt x="457" y="858" on="0"/>
        <pt x="582" y="858" on="1"/>
        <pt x="706" y="858" on="0"/>
        <pt x="854" y="1014" on="0"/>
        <pt x="854" y="1143" on="1"/>
        <pt x="854" y="1247" on="0"/>
        <pt x="707" y="1372" on="0"/>
        <pt x="582" y="1372" on="1"/>
        <pt x="461" y="1372" on="0"/>
        <pt x="309" y="1244" on="0"/>
      </contour>
    </TTGlyph>
    <TTGlyph name="uni0552" xMin="31" yMin="0" xMax="1118" yMax="1462">
      <contour>
        <pt x="432" y="1098" on="1"/>
        <pt x="545" y="1098" on="1"/>
        <pt x="731" y="1098" on="0"/>
        <pt x="913" y="922" on="0"/>
        <pt x="913" y="727" on="1"/>
        <pt x="913" y="614" on="0"/>
        <pt x="995" y="528" on="0"/>
        <pt x="1104" y="528" on="1"/>
        <pt x="1118" y="528" on="1"/>
        <pt x="1118" y="418" on="1"/>
        <pt x="1071" y="418" on="1"/>
        <pt x="939" y="418" on="0"/>
        <pt x="780" y="482" on="0"/>
        <pt x="707" y="615" on="0"/>
        <pt x="707" y="733" on="1"/>
        <pt x="707" y="872" on="0"/>
        <pt x="631" y="987" on="0"/>
        <pt x="543" y="987" on="1"/>
        <pt x="432" y="987" on="1"/>
        <pt x="432" y="0" on="1"/>
        <pt x="225" y="0" on="1"/>
        <pt x="225" y="1237" on="1"/>
        <pt x="225" y="1287" on="0"/>
        <pt x="190" y="1348" on="0"/>
        <pt x="123" y="1376" on="0"/>
        <pt x="57" y="1376" on="1"/>
        <pt x="31" y="1376" on="1"/>
        <pt x="31" y="1462" on="1"/>
        <pt x="432" y="1462" on="1"/>
      </contour>
    </TTGlyph>
    <TTGlyph name="uni0553" xMin="68" yMin="0" xMax="1497" yMax="1462">
      <contour>
        <pt x="881" y="371" on="1"/>
        <pt x="928" y="371" on="1"/>
        <pt x="1109" y="371" on="0"/>
        <pt x="1276" y="552" on="0"/>
        <pt x="1276" y="752" on="1"/>
        <pt x="1276" y="937" on="0"/>
        <pt x="1121" y="1110" on="0"/>
        <pt x="958" y="1110" on="1"/>
        <pt x="881" y="1110" on="1"/>
      </contour>
      <contour>
        <pt x="684" y="0" on="1"/>
        <pt x="684" y="274" on="1"/>
        <pt x="616" y="274" on="1"/>
        <pt x="352" y="274" on="0"/>
        <pt x="68" y="537" on="0"/>
        <pt x="68" y="760" on="1"/>
        <pt x="68" y="976" on="0"/>
        <pt x="331" y="1208" on="0"/>
        <pt x="571" y="1208" on="1"/>
        <pt x="684" y="1208" on="1"/>
        <pt x="684" y="1229" on="1"/>
        <pt x="684" y="1304" on="0"/>
        <pt x="610" y="1376" on="0"/>
        <pt x="516" y="1376" on="1"/>
        <pt x="489" y="1376" on="1"/>
        <pt x="489" y="1462" on="1"/>
        <pt x="881" y="1462" on="1"/>
        <pt x="881" y="1208" on="1"/>
        <pt x="993" y="1208" on="1"/>
        <pt x="1236" y="1208" on="0"/>
        <pt x="1497" y="974" on="0"/>
        <pt x="1497" y="760" on="1"/>
        <pt x="1497" y="610" on="0"/>
        <pt x="1362" y="385" on="0"/>
        <pt x="1117" y="274" on="0"/>
        <pt x="948" y="274" on="1"/>
        <pt x="881" y="274" on="1"/>
        <pt x="881" y="0" on="1"/>
      </contour>
      <contour>
        <pt x="684" y="1110" on="1"/>
        <pt x="606" y="1110" on="1"/>
        <pt x="444" y="1110" on="0"/>
        <pt x="289" y="937" on="0"/>
        <pt x="289" y="752" on="1"/>
        <pt x="289" y="553" on="0"/>
        <pt x="455" y="371" on="0"/>
        <pt x="637" y="371" on="1"/>
        <pt x="684" y="371" on="1"/>
      </contour>
    </TTGlyph>
    <TTGlyph name="uni0554" xMin="41" yMin="0" xMax="1499" yMax="1483">
      <contour>
        <pt x="668" y="420" on="1"/>
        <pt x="668" y="0" on="1"/>
        <pt x="461" y="0" on="1"/>
        <pt x="461" y="420" on="1"/>
        <pt x="440" y="420" on="1"/>
        <pt x="237" y="420" on="0"/>
        <pt x="41" y="500" on="0"/>
        <pt x="41" y="588" on="1"/>
        <pt x="41" y="634" on="0"/>
        <pt x="126" y="682" on="0"/>
        <pt x="201" y="682" on="1"/>
        <pt x="201" y="602" on="0"/>
        <pt x="315" y="530" on="0"/>
        <pt x="444" y="530" on="1"/>
        <pt x="461" y="530" on="1"/>
        <pt x="461" y="1032" on="1"/>
        <pt x="461" y="1247" on="0"/>
        <pt x="699" y="1483" on="0"/>
        <pt x="913" y="1483" on="1"/>
        <pt x="1135" y="1483" on="0"/>
        <pt x="1366" y="1283" on="0"/>
        <pt x="1366" y="1090" on="1"/>
        <pt x="1366" y="896" on="0"/>
        <pt x="1106" y="707" on="0"/>
        <pt x="842" y="707" on="1"/>
        <pt x="668" y="707" on="1"/>
        <pt x="668" y="530" on="1"/>
        <pt x="1100" y="530" on="1"/>
        <pt x="1303" y="530" on="0"/>
        <pt x="1499" y="450" on="0"/>
        <pt x="1499" y="362" on="1"/>
        <pt x="1499" y="318" on="0"/>
        <pt x="1418" y="268" on="0"/>
        <pt x="1339" y="268" on="1"/>
        <pt x="1339" y="348" on="0"/>
        <pt x="1225" y="420" on="0"/>
        <pt x="1096" y="420" on="1"/>
      </contour>
      <contour>
        <pt x="668" y="817" on="1"/>
        <pt x="840" y="817" on="1"/>
        <pt x="1003" y="817" on="0"/>
        <pt x="1145" y="953" on="0"/>
        <pt x="1145" y="1096" on="1"/>
        <pt x="1145" y="1372" on="0"/>
        <pt x="907" y="1372" on="1"/>
        <pt x="790" y="1372" on="0"/>
        <pt x="668" y="1200" on="0"/>
        <pt x="668" y="1038" on="1"/>
      </contour>
    </TTGlyph>
    <TTGlyph name="uni0555" xMin="115" yMin="-20" xMax="1403" yMax="1485">
      <contour>
        <pt x="1403" y="733" on="1"/>
        <pt x="1403" y="382" on="0"/>
        <pt x="1060" y="-20" on="0"/>
        <pt x="760" y="-20" on="1"/>
        <pt x="449" y="-20" on="0"/>
        <pt x="115" y="377" on="0"/>
        <pt x="115" y="735" on="1"/>
        <pt x="115" y="1092" on="0"/>
        <pt x="449" y="1485" on="0"/>
        <pt x="762" y="1485" on="1"/>
        <pt x="1061" y="1485" on="0"/>
        <pt x="1403" y="1086" on="0"/>
      </contour>
      <contour>
        <pt x="342" y="733" on="1"/>
        <pt x="342" y="403" on="0"/>
        <pt x="549" y="90" on="0"/>
        <pt x="760" y="90" on="1"/>
        <pt x="971" y="90" on="0"/>
        <pt x="1176" y="401" on="0"/>
        <pt x="1176" y="733" on="1"/>
        <pt x="1176" y="1065" on="0"/>
        <pt x="972" y="1374" on="0"/>
        <pt x="762" y="1374" on="1"/>
        <pt x="550" y="1374" on="0"/>
        <pt x="342" y="1066" on="0"/>
      </contour>
    </TTGlyph>
    <TTGlyph name="uni0556" xMin="86" yMin="-20" xMax="1210" yMax="1477">
      <contour>
        <pt x="623" y="-20" on="1"/>
        <pt x="456" y="-20" on="0"/>
        <pt x="211" y="51" on="0"/>
        <pt x="86" y="182" on="0"/>
        <pt x="86" y="268" on="1"/>
        <pt x="86" y="330" on="0"/>
        <pt x="162" y="406" on="0"/>
        <pt x="233" y="406" on="1"/>
        <pt x="240" y="270" on="0"/>
        <pt x="414" y="98" on="0"/>
        <pt x="561" y="88" on="1"/>
        <pt x="561" y="684" on="1"/>
        <pt x="333" y="738" on="0"/>
        <pt x="125" y="955" on="0"/>
        <pt x="125" y="1145" on="1"/>
        <pt x="125" y="1240" on="0"/>
        <pt x="242" y="1393" on="0"/>
        <pt x="453" y="1477" on="0"/>
        <pt x="590" y="1477" on="1"/>
        <pt x="629" y="1477" on="0"/>
        <pt x="696" y="1472" on="0"/>
        <pt x="748" y="1462" on="1"/>
        <pt x="748" y="838" on="1"/>
        <pt x="1210" y="719" on="0"/>
        <pt x="1210" y="389" on="1"/>
        <pt x="1210" y="201" on="0"/>
        <pt x="894" y="-20" on="0"/>
      </contour>
      <contour>
        <pt x="1016" y="375" on="1"/>
        <pt x="1016" y="481" on="0"/>
        <pt x="882" y="611" on="0"/>
        <pt x="748" y="643" on="1"/>
        <pt x="748" y="92" on="1"/>
        <pt x="874" y="114" on="0"/>
        <pt x="1016" y="256" on="0"/>
      </contour>
      <contour>
        <pt x="315" y="1141" on="1"/>
        <pt x="315" y="1035" on="0"/>
        <pt x="431" y="915" on="0"/>
        <pt x="561" y="881" on="1"/>
        <pt x="561" y="1374" on="1"/>
        <pt x="446" y="1374" on="0"/>
        <pt x="315" y="1259" on="0"/>
      </contour>
    </TTGlyph>
    <TTGlyph name="uni0559" xMin="66" yMin="864" xMax="356" yMax="1485">
      <contour>
        <pt x="66" y="1141" on="1"/>
        <pt x="66" y="1254" on="0"/>
        <pt x="206" y="1437" on="0"/>
        <pt x="330" y="1485" on="1"/>
        <pt x="354" y="1415" on="1"/>
        <pt x="217" y="1328" on="0"/>
        <pt x="217" y="1169" on="1"/>
        <pt x="217" y="1024" on="0"/>
        <pt x="356" y="1012" on="1"/>
        <pt x="356" y="864" on="1"/>
        <pt x="66" y="870" on="0"/>
      </contour>
    </TTGlyph>
    <TTGlyph name="uni055A" xMin="86" yMin="864" xMax="377" yMax="1485">
      <contour>
        <pt x="377" y="1208" on="1"/>
        <pt x="377" y="1096" on="0"/>
        <pt x="240" y="914" on="0"/>
        <pt x="113" y="864" on="1"/>
        <pt x="88" y="934" on="1"/>
        <pt x="225" y="1021" on="0"/>
        <pt x="225" y="1180" on="1"/>
        <pt x="225" y="1325" on="0"/>
        <pt x="86" y="1337" on="1"/>
        <pt x="86" y="1485" on="1"/>
        <pt x="377" y="1479" on="0"/>
      </contour>
    </TTGlyph>
    <TTGlyph name="uni055B" xMin="76" yMin="944" xMax="393" yMax="1462">
      <contour>
        <pt x="375" y="1462" on="1"/>
        <pt x="393" y="1432" on="1"/>
        <pt x="330" y="1197" on="0"/>
        <pt x="215" y="944" on="1"/>
        <pt x="76" y="944" on="1"/>
        <pt x="107" y="1062" on="0"/>
        <pt x="168" y="1374" on="0"/>
        <pt x="180" y="1462" on="1"/>
      </contour>
    </TTGlyph>
    <TTGlyph name="uni055C" xMin="61" yMin="817" xMax="549" yMax="1483">
      <contour>
        <pt x="397" y="1395" on="1"/>
        <pt x="397" y="1430" on="0"/>
        <pt x="369" y="1483" on="1"/>
        <pt x="464" y="1480" on="0"/>
        <pt x="549" y="1392" on="0"/>
        <pt x="549" y="1323" on="1"/>
        <pt x="549" y="1267" on="0"/>
        <pt x="471" y="1165" on="0"/>
        <pt x="360" y="1096" on="1"/>
        <pt x="278" y="1041" on="0"/>
        <pt x="213" y="960" on="0"/>
        <pt x="213" y="905" on="1"/>
        <pt x="213" y="872" on="0"/>
        <pt x="242" y="817" on="1"/>
        <pt x="147" y="820" on="0"/>
        <pt x="61" y="908" on="0"/>
        <pt x="61" y="977" on="1"/>
        <pt x="61" y="1032" on="0"/>
        <pt x="140" y="1136" on="0"/>
        <pt x="250" y="1204" on="1"/>
        <pt x="332" y="1258" on="0"/>
        <pt x="397" y="1339" on="0"/>
      </contour>
    </TTGlyph>
    <TTGlyph name="uni055D" xMin="78" yMin="944" xMax="395" yMax="1462">
      <contour>
        <pt x="291" y="1462" on="1"/>
        <pt x="304" y="1365" on="0"/>
        <pt x="364" y="1062" on="0"/>
        <pt x="395" y="944" on="1"/>
        <pt x="256" y="944" on="1"/>
        <pt x="141" y="1197" on="0"/>
        <pt x="78" y="1432" on="1"/>
        <pt x="96" y="1462" on="1"/>
      </contour>
    </TTGlyph>
    <TTGlyph name="uni055E" xMin="57" yMin="831" xMax="717" yMax="1483">
      <contour>
        <pt x="483" y="1044" on="1"/>
        <pt x="342" y="1044" on="0"/>
        <pt x="342" y="1174" on="1"/>
        <pt x="387" y="1155" on="0"/>
        <pt x="449" y="1155" on="1"/>
        <pt x="497" y="1155" on="0"/>
        <pt x="553" y="1215" on="0"/>
        <pt x="553" y="1266" on="1"/>
        <pt x="553" y="1317" on="0"/>
        <pt x="489" y="1372" on="0"/>
        <pt x="444" y="1372" on="1"/>
        <pt x="339" y="1372" on="0"/>
        <pt x="221" y="1158" on="0"/>
        <pt x="221" y="965" on="1"/>
        <pt x="221" y="879" on="0"/>
        <pt x="233" y="831" on="1"/>
        <pt x="155" y="831" on="0"/>
        <pt x="57" y="935" on="0"/>
        <pt x="57" y="1018" on="1"/>
        <pt x="57" y="1137" on="0"/>
        <pt x="161" y="1355" on="0"/>
        <pt x="345" y="1483" on="0"/>
        <pt x="459" y="1483" on="1"/>
        <pt x="574" y="1483" on="0"/>
        <pt x="717" y="1356" on="0"/>
        <pt x="717" y="1264" on="1"/>
        <pt x="717" y="1160" on="0"/>
        <pt x="596" y="1044" on="0"/>
      </contour>
    </TTGlyph>
    <TTGlyph name="uni055F" xMin="74" yMin="1079" xMax="786" yMax="1550">
      <contour>
        <pt x="238" y="1323" on="1"/>
        <pt x="238" y="1253" on="0"/>
        <pt x="321" y="1190" on="0"/>
        <pt x="422" y="1190" on="1"/>
        <pt x="786" y="1190" on="1"/>
        <pt x="786" y="1079" on="1"/>
        <pt x="383" y="1079" on="1"/>
        <pt x="230" y="1079" on="0"/>
        <pt x="74" y="1202" on="0"/>
        <pt x="74" y="1319" on="1"/>
        <pt x="74" y="1423" on="0"/>
        <pt x="222" y="1550" on="0"/>
        <pt x="346" y="1550" on="1"/>
        <pt x="500" y="1550" on="0"/>
        <pt x="500" y="1462" on="1"/>
        <pt x="500" y="1438" on="0"/>
        <pt x="487" y="1411" on="1"/>
        <pt x="443" y="1440" on="0"/>
        <pt x="362" y="1440" on="1"/>
        <pt x="305" y="1440" on="0"/>
        <pt x="238" y="1373" on="0"/>
      </contour>
    </TTGlyph>
    <TTGlyph name="uni0561" xMin="57" yMin="-20" xMax="1858" yMax="1098">
      <contour>
        <pt x="1694" y="225" on="1"/>
        <pt x="1694" y="175" on="0"/>
        <pt x="1725" y="115" on="0"/>
        <pt x="1785" y="86" on="0"/>
        <pt x="1851" y="86" on="1"/>
        <pt x="1858" y="86" on="1"/>
        <pt x="1858" y="0" on="1"/>
        <pt x="1536" y="0" on="1"/>
        <pt x="1509" y="166" on="1"/>
        <pt x="1499" y="166" on="1"/>
        <pt x="1447" y="68" on="0"/>
        <pt x="1306" y="-20" on="0"/>
        <pt x="1190" y="-20" on="1"/>
        <pt x="1078" y="-20" on="0"/>
        <pt x="927" y="75" on="0"/>
        <pt x="893" y="166" on="1"/>
        <pt x="877" y="166" on="1"/>
        <pt x="826" y="70" on="0"/>
        <pt x="675" y="-20" on="0"/>
        <pt x="555" y="-20" on="1"/>
        <pt x="221" y="-20" on="0"/>
        <pt x="221" y="381" on="1"/>
        <pt x="221" y="864" on="1"/>
        <pt x="221" y="943" on="0"/>
        <pt x="154" y="1012" on="0"/>
        <pt x="63" y="1012" on="1"/>
        <pt x="57" y="1012" on="1"/>
        <pt x="57" y="1098" on="1"/>
        <pt x="414" y="1098" on="1"/>
        <pt x="414" y="391" on="1"/>
        <pt x="414" y="248" on="0"/>
        <pt x="518" y="111" on="0"/>
        <pt x="629" y="111" on="1"/>
        <pt x="740" y="111" on="0"/>
        <pt x="856" y="268" on="0"/>
        <pt x="856" y="416" on="1"/>
        <pt x="856" y="864" on="1"/>
        <pt x="856" y="943" on="0"/>
        <pt x="789" y="1012" on="0"/>
        <pt x="698" y="1012" on="1"/>
        <pt x="692" y="1012" on="1"/>
        <pt x="692" y="1098" on="1"/>
        <pt x="1049" y="1098" on="1"/>
        <pt x="1049" y="391" on="1"/>
        <pt x="1049" y="248" on="0"/>
        <pt x="1153" y="111" on="0"/>
        <pt x="1264" y="111" on="1"/>
        <pt x="1379" y="111" on="0"/>
        <pt x="1501" y="281" on="0"/>
        <pt x="1501" y="442" on="1"/>
        <pt x="1501" y="874" on="1"/>
        <pt x="1501" y="944" on="0"/>
        <pt x="1428" y="1012" on="0"/>
        <pt x="1333" y="1012" on="1"/>
        <pt x="1327" y="1012" on="1"/>
        <pt x="1327" y="1098" on="1"/>
        <pt x="1694" y="1098" on="1"/>
      </contour>
    </TTGlyph>
    <TTGlyph name="uni0562" xMin="57" yMin="-492" xMax="1090" yMax="1118">
      <contour>
        <pt x="231" y="872" on="1"/>
        <pt x="231" y="943" on="0"/>
        <pt x="155" y="1012" on="0"/>
        <pt x="63" y="1012" on="1"/>
        <pt x="57" y="1012" on="1"/>
        <pt x="57" y="1098" on="1"/>
        <pt x="389" y="1098" on="1"/>
        <pt x="416" y="932" on="1"/>
        <pt x="426" y="932" on="1"/>
        <pt x="482" y="1032" on="0"/>
        <pt x="627" y="1118" on="0"/>
        <pt x="745" y="1118" on="1"/>
        <pt x="1090" y="1118" on="0"/>
        <pt x="1090" y="717" on="1"/>
        <pt x="1090" y="377" on="1"/>
        <pt x="897" y="377" on="1"/>
        <pt x="897" y="707" on="1"/>
        <pt x="897" y="850" on="0"/>
        <pt x="789" y="987" on="0"/>
        <pt x="672" y="987" on="1"/>
        <pt x="552" y="987" on="0"/>
        <pt x="424" y="816" on="0"/>
        <pt x="424" y="655" on="1"/>
        <pt x="424" y="117" on="1"/>
        <pt x="1090" y="117" on="1"/>
        <pt x="1090" y="0" on="1"/>
        <pt x="424" y="0" on="1"/>
        <pt x="424" y="-268" on="1"/>
        <pt x="424" y="-338" on="0"/>
        <pt x="497" y="-406" on="0"/>
        <pt x="592" y="-406" on="1"/>
        <pt x="598" y="-406" on="1"/>
        <pt x="598" y="-492" on="1"/>
        <pt x="231" y="-492" on="1"/>
      </contour>
    </TTGlyph>
    <TTGlyph name="uni0563" xMin="113" yMin="-492" xMax="1339" yMax="1118">
      <contour>
        <pt x="311" y="545" on="1"/>
        <pt x="311" y="327" on="0"/>
        <pt x="429" y="111" on="0"/>
        <pt x="565" y="111" on="1"/>
        <pt x="714" y="111" on="0"/>
        <pt x="844" y="309" on="0"/>
        <pt x="844" y="547" on="1"/>
        <pt x="844" y="785" on="0"/>
        <pt x="709" y="987" on="0"/>
        <pt x="563" y="987" on="1"/>
        <pt x="436" y="987" on="0"/>
        <pt x="311" y="774" on="0"/>
      </contour>
      <contour>
        <pt x="113" y="547" on="1"/>
        <pt x="113" y="835" on="0"/>
        <pt x="320" y="1118" on="0"/>
        <pt x="530" y="1118" on="1"/>
        <pt x="745" y="1118" on="0"/>
        <pt x="844" y="938" on="1"/>
        <pt x="856" y="938" on="1"/>
        <pt x="893" y="1098" on="1"/>
        <pt x="1036" y="1098" on="1"/>
        <pt x="1036" y="117" on="1"/>
        <pt x="1339" y="117" on="1"/>
        <pt x="1339" y="0" on="1"/>
        <pt x="1036" y="0" on="1"/>
        <pt x="1036" y="-266" on="1"/>
        <pt x="1036" y="-337" on="0"/>
        <pt x="1112" y="-406" on="0"/>
        <pt x="1204" y="-406" on="1"/>
        <pt x="1221" y="-406" on="1"/>
        <pt x="1221" y="-492" on="1"/>
        <pt x="844" y="-492" on="1"/>
        <pt x="844" y="-82" on="1"/>
        <pt x="844" y="-16" on="0"/>
        <pt x="852" y="184" on="1"/>
        <pt x="844" y="184" on="1"/>
        <pt x="744" y="-20" on="0"/>
        <pt x="530" y="-20" on="1"/>
        <pt x="113" y="-20" on="0"/>
      </contour>
    </TTGlyph>
    <TTGlyph name="uni0564" xMin="57" yMin="-492" xMax="1403" yMax="1118">
      <contour>
        <pt x="907" y="707" on="1"/>
        <pt x="907" y="850" on="0"/>
        <pt x="799" y="987" on="0"/>
        <pt x="682" y="987" on="1"/>
        <pt x="562" y="987" on="0"/>
        <pt x="434" y="816" on="0"/>
        <pt x="434" y="655" on="1"/>
        <pt x="434" y="223" on="1"/>
        <pt x="434" y="152" on="0"/>
        <pt x="507" y="86" on="0"/>
        <pt x="602" y="86" on="1"/>
        <pt x="608" y="86" on="1"/>
        <pt x="608" y="0" on="1"/>
        <pt x="57" y="0" on="1"/>
        <pt x="57" y="86" on="1"/>
        <pt x="74" y="86" on="1"/>
        <pt x="169" y="86" on="0"/>
        <pt x="242" y="159" on="0"/>
        <pt x="242" y="233" on="1"/>
        <pt x="242" y="872" on="1"/>
        <pt x="242" y="943" on="0"/>
        <pt x="166" y="1012" on="0"/>
        <pt x="74" y="1012" on="1"/>
        <pt x="68" y="1012" on="1"/>
        <pt x="68" y="1098" on="1"/>
        <pt x="399" y="1098" on="1"/>
        <pt x="426" y="932" on="1"/>
        <pt x="436" y="932" on="1"/>
        <pt x="491" y="1029" on="0"/>
        <pt x="635" y="1118" on="0"/>
        <pt x="756" y="1118" on="1"/>
        <pt x="1100" y="1118" on="0"/>
        <pt x="1100" y="717" on="1"/>
        <pt x="1100" y="117" on="1"/>
        <pt x="1403" y="117" on="1"/>
        <pt x="1403" y="0" on="1"/>
        <pt x="1100" y="0" on="1"/>
        <pt x="1100" y="-268" on="1"/>
        <pt x="1100" y="-338" on="0"/>
        <pt x="1173" y="-406" on="0"/>
        <pt x="1268" y="-406" on="1"/>
        <pt x="1274" y="-406" on="1"/>
        <pt x="1274" y="-492" on="1"/>
        <pt x="907" y="-492" on="1"/>
      </contour>
    </TTGlyph>
    <TTGlyph name="uni0565" xMin="47" yMin="-20" xMax="1253" yMax="1556">
      <contour>
        <pt x="1079" y="700" on="1"/>
        <pt x="1079" y="223" on="1"/>
        <pt x="1079" y="152" on="0"/>
        <pt x="1152" y="86" on="0"/>
        <pt x="1247" y="86" on="1"/>
        <pt x="1253" y="86" on="1"/>
        <pt x="1253" y="0" on="1"/>
        <pt x="928" y="0" on="1"/>
        <pt x="901" y="166" on="1"/>
        <pt x="891" y="166" on="1"/>
        <pt x="841" y="73" on="0"/>
        <pt x="686" y="-20" on="0"/>
        <pt x="559" y="-20" on="1"/>
        <pt x="221" y="-20" on="0"/>
        <pt x="221" y="381" on="1"/>
        <pt x="221" y="1331" on="1"/>
        <pt x="221" y="1381" on="0"/>
        <pt x="186" y="1442" on="0"/>
        <pt x="119" y="1470" on="0"/>
        <pt x="53" y="1470" on="1"/>
        <pt x="47" y="1470" on="1"/>
        <pt x="47" y="1556" on="1"/>
        <pt x="414" y="1556" on="1"/>
        <pt x="414" y="1098" on="1"/>
        <pt x="1079" y="1098" on="1"/>
        <pt x="1079" y="981" on="1"/>
        <pt x="414" y="981" on="1"/>
        <pt x="414" y="391" on="1"/>
        <pt x="414" y="243" on="0"/>
        <pt x="515" y="111" on="0"/>
        <pt x="629" y="111" on="1"/>
        <pt x="754" y="111" on="0"/>
        <pt x="887" y="280" on="0"/>
        <pt x="887" y="442" on="1"/>
        <pt x="887" y="700" on="1"/>
      </contour>
    </TTGlyph>
    <TTGlyph name="uni0566" xMin="113" yMin="-492" xMax="1360" yMax="1118">
      <contour>
        <pt x="1360" y="-375" on="1"/>
        <pt x="1360" y="-492" on="1"/>
        <pt x="844" y="-492" on="1"/>
        <pt x="844" y="-82" on="1"/>
        <pt x="844" y="-16" on="0"/>
        <pt x="852" y="184" on="1"/>
        <pt x="844" y="184" on="1"/>
        <pt x="744" y="-20" on="0"/>
        <pt x="530" y="-20" on="1"/>
        <pt x="113" y="-20" on="0"/>
        <pt x="113" y="547" on="1"/>
        <pt x="113" y="835" on="0"/>
        <pt x="320" y="1118" on="0"/>
        <pt x="530" y="1118" on="1"/>
        <pt x="745" y="1118" on="0"/>
        <pt x="844" y="938" on="1"/>
        <pt x="856" y="938" on="1"/>
        <pt x="893" y="1098" on="1"/>
        <pt x="1036" y="1098" on="1"/>
        <pt x="1036" y="-375" on="1"/>
      </contour>
      <contour>
        <pt x="565" y="111" on="1"/>
        <pt x="714" y="111" on="0"/>
        <pt x="844" y="309" on="0"/>
        <pt x="844" y="547" on="1"/>
        <pt x="844" y="785" on="0"/>
        <pt x="709" y="987" on="0"/>
        <pt x="563" y="987" on="1"/>
        <pt x="436" y="987" on="0"/>
        <pt x="311" y="774" on="0"/>
        <pt x="311" y="545" on="1"/>
        <pt x="311" y="327" on="0"/>
        <pt x="429" y="111" on="0"/>
      </contour>
    </TTGlyph>
    <TTGlyph name="uni0567" xMin="27" yMin="-297" xMax="922" yMax="1556">
      <contour>
        <pt x="211" y="1331" on="1"/>
        <pt x="211" y="1381" on="0"/>
        <pt x="176" y="1442" on="0"/>
        <pt x="109" y="1470" on="0"/>
        <pt x="43" y="1470" on="1"/>
        <pt x="27" y="1470" on="1"/>
        <pt x="27" y="1556" on="1"/>
        <pt x="403" y="1556" on="1"/>
        <pt x="403" y="1098" on="1"/>
        <pt x="881" y="1098" on="1"/>
        <pt x="881" y="981" on="1"/>
        <pt x="403" y="981" on="1"/>
        <pt x="403" y="117" on="1"/>
        <pt x="582" y="117" on="1"/>
        <pt x="755" y="117" on="0"/>
        <pt x="922" y="-9" on="0"/>
        <pt x="922" y="-141" on="1"/>
        <pt x="922" y="-214" on="0"/>
        <pt x="817" y="-297" on="0"/>
        <pt x="723" y="-297" on="1"/>
        <pt x="723" y="-181" on="0"/>
        <pt x="685" y="-55" on="0"/>
        <pt x="601" y="0" on="0"/>
        <pt x="516" y="0" on="1"/>
        <pt x="211" y="0" on="1"/>
      </contour>
    </TTGlyph>
    <TTGlyph name="uni0568" xMin="68" yMin="-492" xMax="1264" yMax="1118">
      <contour>
        <pt x="1100" y="-375" on="1"/>
        <pt x="1100" y="-492" on="1"/>
        <pt x="242" y="-492" on="1"/>
        <pt x="242" y="872" on="1"/>
        <pt x="242" y="943" on="0"/>
        <pt x="166" y="1012" on="0"/>
        <pt x="74" y="1012" on="1"/>
        <pt x="68" y="1012" on="1"/>
        <pt x="68" y="1098" on="1"/>
        <pt x="399" y="1098" on="1"/>
        <pt x="426" y="932" on="1"/>
        <pt x="436" y="932" on="1"/>
        <pt x="491" y="1029" on="0"/>
        <pt x="635" y="1118" on="0"/>
        <pt x="756" y="1118" on="1"/>
        <pt x="1100" y="1118" on="0"/>
        <pt x="1100" y="717" on="1"/>
        <pt x="1100" y="233" on="1"/>
        <pt x="1100" y="155" on="0"/>
        <pt x="1165" y="86" on="0"/>
        <pt x="1253" y="86" on="1"/>
        <pt x="1264" y="86" on="1"/>
        <pt x="1264" y="0" on="1"/>
        <pt x="907" y="0" on="1"/>
        <pt x="907" y="707" on="1"/>
        <pt x="907" y="850" on="0"/>
        <pt x="799" y="987" on="0"/>
        <pt x="682" y="987" on="1"/>
        <pt x="562" y="987" on="0"/>
        <pt x="434" y="816" on="0"/>
        <pt x="434" y="655" on="1"/>
        <pt x="434" y="-375" on="1"/>
      </contour>
    </TTGlyph>
    <TTGlyph name="uni0569" xMin="27" yMin="-492" xMax="1354" yMax="1118">
      <contour>
        <pt x="856" y="86" on="1"/>
        <pt x="932" y="86" on="0"/>
        <pt x="1000" y="312" on="0"/>
        <pt x="1004" y="571" on="1"/>
        <pt x="1001" y="618" on="1"/>
        <pt x="954" y="627" on="0"/>
        <pt x="924" y="627" on="1"/>
        <pt x="831" y="627" on="0"/>
        <pt x="731" y="483" on="0"/>
        <pt x="731" y="346" on="1"/>
        <pt x="731" y="86" on="0"/>
      </contour>
      <contour>
        <pt x="993" y="729" on="1"/>
        <pt x="972" y="862" on="0"/>
        <pt x="842" y="987" on="0"/>
        <pt x="723" y="987" on="1"/>
        <pt x="556" y="987" on="0"/>
        <pt x="414" y="790" on="0"/>
        <pt x="414" y="551" on="1"/>
        <pt x="414" y="-268" on="1"/>
        <pt x="414" y="-338" on="0"/>
        <pt x="487" y="-406" on="0"/>
        <pt x="582" y="-406" on="1"/>
        <pt x="618" y="-406" on="1"/>
        <pt x="618" y="-492" on="1"/>
        <pt x="221" y="-492" on="1"/>
        <pt x="221" y="872" on="1"/>
        <pt x="221" y="943" on="0"/>
        <pt x="145" y="1012" on="0"/>
        <pt x="53" y="1012" on="1"/>
        <pt x="27" y="1012" on="1"/>
        <pt x="27" y="1098" on="1"/>
        <pt x="385" y="1098" on="1"/>
        <pt x="406" y="913" on="1"/>
        <pt x="414" y="913" on="1"/>
        <pt x="519" y="1118" on="0"/>
        <pt x="752" y="1118" on="1"/>
        <pt x="944" y="1118" on="0"/>
        <pt x="1169" y="912" on="0"/>
        <pt x="1194" y="688" on="1"/>
        <pt x="1281" y="664" on="0"/>
        <pt x="1354" y="605" on="0"/>
        <pt x="1354" y="573" on="1"/>
        <pt x="1354" y="541" on="0"/>
        <pt x="1323" y="510" on="1"/>
        <pt x="1256" y="556" on="0"/>
        <pt x="1202" y="573" on="1"/>
        <pt x="1200" y="277" on="0"/>
        <pt x="1033" y="-20" on="0"/>
        <pt x="856" y="-20" on="1"/>
        <pt x="707" y="-20" on="0"/>
        <pt x="539" y="174" on="0"/>
        <pt x="539" y="342" on="1"/>
        <pt x="539" y="452" on="0"/>
        <pt x="630" y="634" on="0"/>
        <pt x="794" y="735" on="0"/>
        <pt x="899" y="735" on="1"/>
        <pt x="948" y="735" on="0"/>
      </contour>
    </TTGlyph>
    <TTGlyph name="uni056A" xMin="113" yMin="-20" xMax="1339" yMax="1556">
      <contour>
        <pt x="113" y="547" on="1"/>
        <pt x="113" y="836" on="0"/>
        <pt x="367" y="1098" on="0"/>
        <pt x="637" y="1098" on="1"/>
        <pt x="844" y="1098" on="1"/>
        <pt x="844" y="1331" on="1"/>
        <pt x="844" y="1381" on="0"/>
        <pt x="809" y="1442" on="0"/>
        <pt x="742" y="1470" on="0"/>
        <pt x="676" y="1470" on="1"/>
        <pt x="659" y="1470" on="1"/>
        <pt x="659" y="1556" on="1"/>
        <pt x="1036" y="1556" on="1"/>
        <pt x="1036" y="1098" on="1"/>
        <pt x="1339" y="1098" on="1"/>
        <pt x="1339" y="981" on="1"/>
        <pt x="1036" y="981" on="1"/>
        <pt x="1036" y="551" on="1"/>
        <pt x="1036" y="-20" on="0"/>
        <pt x="573" y="-20" on="1"/>
        <pt x="113" y="-20" on="0"/>
      </contour>
      <contour>
        <pt x="565" y="86" on="1"/>
        <pt x="710" y="86" on="0"/>
        <pt x="844" y="300" on="0"/>
        <pt x="844" y="547" on="1"/>
        <pt x="844" y="981" on="1"/>
        <pt x="643" y="981" on="1"/>
        <pt x="515" y="981" on="0"/>
        <pt x="375" y="896" on="0"/>
        <pt x="311" y="709" on="0"/>
        <pt x="311" y="545" on="1"/>
        <pt x="311" y="310" on="0"/>
        <pt x="437" y="86" on="0"/>
      </contour>
    </TTGlyph>
    <TTGlyph name="uni056B" xMin="27" yMin="-492" xMax="1233" yMax="1556">
      <contour>
        <pt x="211" y="1331" on="1"/>
        <pt x="211" y="1381" on="0"/>
        <pt x="176" y="1442" on="0"/>
        <pt x="109" y="1470" on="0"/>
        <pt x="43" y="1470" on="1"/>
        <pt x="27" y="1470" on="1"/>
        <pt x="27" y="1556" on="1"/>
        <pt x="403" y="1556" on="1"/>
        <pt x="403" y="1106" on="1"/>
        <pt x="403" y="1048" on="0"/>
        <pt x="395" y="932" on="1"/>
        <pt x="406" y="932" on="1"/>
        <pt x="498" y="1118" on="0"/>
        <pt x="707" y="1118" on="1"/>
        <pt x="1069" y="1118" on="0"/>
        <pt x="1069" y="717" on="1"/>
        <pt x="1069" y="233" on="1"/>
        <pt x="1069" y="156" on="0"/>
        <pt x="1135" y="86" on="0"/>
        <pt x="1225" y="86" on="1"/>
        <pt x="1233" y="86" on="1"/>
        <pt x="1233" y="0" on="1"/>
        <pt x="877" y="0" on="1"/>
        <pt x="877" y="707" on="1"/>
        <pt x="877" y="851" on="0"/>
        <pt x="767" y="987" on="0"/>
        <pt x="651" y="987" on="1"/>
        <pt x="530" y="987" on="0"/>
        <pt x="403" y="814" on="0"/>
        <pt x="403" y="655" on="1"/>
        <pt x="403" y="-268" on="1"/>
        <pt x="403" y="-337" on="0"/>
        <pt x="474" y="-406" on="0"/>
        <pt x="569" y="-406" on="1"/>
        <pt x="578" y="-406" on="1"/>
        <pt x="578" y="-492" on="1"/>
        <pt x="211" y="-492" on="1"/>
      </contour>
    </TTGlyph>
    <TTGlyph name="uni056C" xMin="57" yMin="-492" xMax="748" yMax="1098">
      <contour>
        <pt x="231" y="872" on="1"/>
        <pt x="231" y="944" on="0"/>
        <pt x="156" y="1012" on="0"/>
        <pt x="66" y="1012" on="1"/>
        <pt x="57" y="1012" on="1"/>
        <pt x="57" y="1098" on="1"/>
        <pt x="424" y="1098" on="1"/>
        <pt x="424" y="-375" on="1"/>
        <pt x="748" y="-375" on="1"/>
        <pt x="748" y="-492" on="1"/>
        <pt x="231" y="-492" on="1"/>
      </contour>
    </TTGlyph>
    <TTGlyph name="uni056D" xMin="27" yMin="-492" xMax="1868" yMax="1556">
      <contour>
        <pt x="1049" y="391" on="1"/>
        <pt x="1049" y="235" on="0"/>
        <pt x="1144" y="111" on="0"/>
        <pt x="1253" y="111" on="1"/>
        <pt x="1501" y="111" on="0"/>
        <pt x="1501" y="442" on="1"/>
        <pt x="1501" y="864" on="1"/>
        <pt x="1501" y="939" on="0"/>
        <pt x="1428" y="1012" on="0"/>
        <pt x="1333" y="1012" on="1"/>
        <pt x="1327" y="1012" on="1"/>
        <pt x="1327" y="1098" on="1"/>
        <pt x="1694" y="1098" on="1"/>
        <pt x="1694" y="223" on="1"/>
        <pt x="1694" y="152" on="0"/>
        <pt x="1767" y="86" on="0"/>
        <pt x="1862" y="86" on="1"/>
        <pt x="1868" y="86" on="1"/>
        <pt x="1868" y="0" on="1"/>
        <pt x="1542" y="0" on="1"/>
        <pt x="1516" y="166" on="1"/>
        <pt x="1505" y="166" on="1"/>
        <pt x="1454" y="70" on="0"/>
        <pt x="1306" y="-20" on="0"/>
        <pt x="1184" y="-20" on="1"/>
        <pt x="1017" y="-20" on="0"/>
        <pt x="856" y="175" on="0"/>
        <pt x="856" y="381" on="1"/>
        <pt x="856" y="707" on="1"/>
        <pt x="856" y="858" on="0"/>
        <pt x="754" y="987" on="0"/>
        <pt x="641" y="987" on="1"/>
        <pt x="403" y="987" on="0"/>
        <pt x="403" y="655" on="1"/>
        <pt x="403" y="-268" on="1"/>
        <pt x="403" y="-338" on="0"/>
        <pt x="476" y="-406" on="0"/>
        <pt x="571" y="-406" on="1"/>
        <pt x="578" y="-406" on="1"/>
        <pt x="578" y="-492" on="1"/>
        <pt x="211" y="-492" on="1"/>
        <pt x="211" y="1331" on="1"/>
        <pt x="211" y="1381" on="0"/>
        <pt x="176" y="1442" on="0"/>
        <pt x="109" y="1470" on="0"/>
        <pt x="43" y="1470" on="1"/>
        <pt x="27" y="1470" on="1"/>
        <pt x="27" y="1556" on="1"/>
        <pt x="403" y="1556" on="1"/>
        <pt x="403" y="1106" on="1"/>
        <pt x="403" y="1048" on="0"/>
        <pt x="395" y="932" on="1"/>
        <pt x="406" y="932" on="1"/>
        <pt x="452" y="1025" on="0"/>
        <pt x="591" y="1118" on="0"/>
        <pt x="696" y="1118" on="1"/>
        <pt x="872" y="1118" on="0"/>
        <pt x="1049" y="927" on="0"/>
        <pt x="1049" y="717" on="1"/>
      </contour>
    </TTGlyph>
    <TTGlyph name="uni056E" xMin="113" yMin="-20" xMax="1208" yMax="1567">
      <contour>
        <pt x="1171" y="887" on="1"/>
        <pt x="1082" y="948" on="0"/>
        <pt x="948" y="975" on="1"/>
        <pt x="1004" y="863" on="0"/>
        <pt x="1069" y="634" on="0"/>
        <pt x="1069" y="502" on="1"/>
        <pt x="1069" y="253" on="0"/>
        <pt x="817" y="-20" on="0"/>
        <pt x="588" y="-20" on="1"/>
        <pt x="358" y="-20" on="0"/>
        <pt x="113" y="246" on="0"/>
        <pt x="113" y="494" on="1"/>
        <pt x="113" y="767" on="0"/>
        <pt x="434" y="1077" on="0"/>
        <pt x="748" y="1096" on="1"/>
        <pt x="689" y="1206" on="0"/>
        <pt x="660" y="1246" on="1"/>
        <pt x="594" y="1334" on="0"/>
        <pt x="551" y="1415" on="0"/>
        <pt x="551" y="1450" on="1"/>
        <pt x="551" y="1498" on="0"/>
        <pt x="617" y="1567" on="0"/>
        <pt x="670" y="1567" on="1"/>
        <pt x="707" y="1567" on="0"/>
        <pt x="766" y="1535" on="0"/>
        <pt x="797" y="1507" on="1"/>
        <pt x="771" y="1486" on="0"/>
        <pt x="741" y="1435" on="0"/>
        <pt x="741" y="1395" on="1"/>
        <pt x="741" y="1325" on="0"/>
        <pt x="780" y="1266" on="1"/>
        <pt x="885" y="1096" on="1"/>
        <pt x="1029" y="1086" on="0"/>
        <pt x="1208" y="1013" on="0"/>
        <pt x="1208" y="954" on="1"/>
        <pt x="1208" y="921" on="0"/>
      </contour>
      <contour>
        <pt x="870" y="496" on="1"/>
        <pt x="870" y="773" on="0"/>
        <pt x="793" y="989" on="1"/>
        <pt x="563" y="982" on="0"/>
        <pt x="311" y="722" on="0"/>
        <pt x="311" y="496" on="1"/>
        <pt x="311" y="286" on="0"/>
        <pt x="451" y="86" on="0"/>
        <pt x="592" y="86" on="1"/>
        <pt x="734" y="86" on="0"/>
        <pt x="870" y="280" on="0"/>
      </contour>
    </TTGlyph>
    <TTGlyph name="uni056F" xMin="37" yMin="-492" xMax="1243" yMax="1556">
      <contour>
        <pt x="1069" y="-268" on="1"/>
        <pt x="1069" y="-337" on="0"/>
        <pt x="1140" y="-406" on="0"/>
        <pt x="1235" y="-406" on="1"/>
        <pt x="1243" y="-406" on="1"/>
        <pt x="1243" y="-492" on="1"/>
        <pt x="877" y="-492" on="1"/>
        <pt x="877" y="0" on="1"/>
        <pt x="877" y="93" on="0"/>
        <pt x="891" y="166" on="1"/>
        <pt x="881" y="166" on="1"/>
        <pt x="831" y="73" on="0"/>
        <pt x="676" y="-20" on="0"/>
        <pt x="549" y="-20" on="1"/>
        <pt x="211" y="-20" on="0"/>
        <pt x="211" y="381" on="1"/>
        <pt x="211" y="1331" on="1"/>
        <pt x="211" y="1401" on="0"/>
        <pt x="138" y="1470" on="0"/>
        <pt x="45" y="1470" on="1"/>
        <pt x="37" y="1470" on="1"/>
        <pt x="37" y="1556" on="1"/>
        <pt x="403" y="1556" on="1"/>
        <pt x="403" y="391" on="1"/>
        <pt x="403" y="243" on="0"/>
        <pt x="504" y="111" on="0"/>
        <pt x="618" y="111" on="1"/>
        <pt x="744" y="111" on="0"/>
        <pt x="877" y="282" on="0"/>
        <pt x="877" y="442" on="1"/>
        <pt x="877" y="864" on="1"/>
        <pt x="877" y="940" on="0"/>
        <pt x="805" y="1012" on="0"/>
        <pt x="711" y="1012" on="1"/>
        <pt x="702" y="1012" on="1"/>
        <pt x="702" y="1098" on="1"/>
        <pt x="1069" y="1098" on="1"/>
      </contour>
    </TTGlyph>
    <TTGlyph name="uni0570" xMin="37" yMin="0" xMax="1243" yMax="1556">
      <contour>
        <pt x="588" y="86" on="1"/>
        <pt x="588" y="0" on="1"/>
        <pt x="37" y="0" on="1"/>
        <pt x="37" y="86" on="1"/>
        <pt x="53" y="86" on="1"/>
        <pt x="148" y="86" on="0"/>
        <pt x="221" y="159" on="0"/>
        <pt x="221" y="233" on="1"/>
        <pt x="221" y="1331" on="1"/>
        <pt x="221" y="1381" on="0"/>
        <pt x="186" y="1442" on="0"/>
        <pt x="119" y="1470" on="0"/>
        <pt x="53" y="1470" on="1"/>
        <pt x="37" y="1470" on="1"/>
        <pt x="37" y="1556" on="1"/>
        <pt x="414" y="1556" on="1"/>
        <pt x="414" y="1106" on="1"/>
        <pt x="414" y="1048" on="0"/>
        <pt x="406" y="932" on="1"/>
        <pt x="416" y="932" on="1"/>
        <pt x="508" y="1118" on="0"/>
        <pt x="717" y="1118" on="1"/>
        <pt x="1079" y="1118" on="0"/>
        <pt x="1079" y="717" on="1"/>
        <pt x="1079" y="233" on="1"/>
        <pt x="1079" y="157" on="0"/>
        <pt x="1146" y="86" on="0"/>
        <pt x="1237" y="86" on="1"/>
        <pt x="1243" y="86" on="1"/>
        <pt x="1243" y="0" on="1"/>
        <pt x="887" y="0" on="1"/>
        <pt x="887" y="707" on="1"/>
        <pt x="887" y="850" on="0"/>
        <pt x="779" y="987" on="0"/>
        <pt x="662" y="987" on="1"/>
        <pt x="541" y="987" on="0"/>
        <pt x="414" y="814" on="0"/>
        <pt x="414" y="655" on="1"/>
        <pt x="414" y="223" on="1"/>
        <pt x="414" y="152" on="0"/>
        <pt x="487" y="86" on="0"/>
        <pt x="582" y="86" on="1"/>
      </contour>
    </TTGlyph>
    <TTGlyph name="uni0571" xMin="113" yMin="-20" xMax="1196" yMax="1577">
      <contour>
        <pt x="852" y="166" on="1"/>
        <pt x="844" y="166" on="1"/>
        <pt x="798" y="75" on="0"/>
        <pt x="650" y="-20" on="0"/>
        <pt x="530" y="-20" on="1"/>
        <pt x="113" y="-20" on="0"/>
        <pt x="113" y="485" on="1"/>
        <pt x="113" y="647" on="0"/>
        <pt x="280" y="924" on="0"/>
        <pt x="436" y="1022" on="1"/>
        <pt x="553" y="1096" on="0"/>
        <pt x="553" y="1192" on="1"/>
        <pt x="553" y="1220" on="0"/>
        <pt x="535" y="1271" on="0"/>
        <pt x="514" y="1325" on="0"/>
        <pt x="496" y="1387" on="0"/>
        <pt x="496" y="1425" on="1"/>
        <pt x="496" y="1491" on="0"/>
        <pt x="587" y="1577" on="0"/>
        <pt x="649" y="1577" on="1"/>
        <pt x="714" y="1577" on="0"/>
        <pt x="797" y="1498" on="0"/>
        <pt x="799" y="1434" on="1"/>
        <pt x="709" y="1434" on="0"/>
        <pt x="635" y="1393" on="0"/>
        <pt x="635" y="1335" on="1"/>
        <pt x="635" y="1319" on="0"/>
        <pt x="653" y="1271" on="1"/>
        <pt x="670" y="1223" on="0"/>
        <pt x="670" y="1188" on="1"/>
        <pt x="670" y="1145" on="0"/>
        <pt x="657" y="1106" on="1"/>
        <pt x="848" y="1032" on="0"/>
        <pt x="1024" y="760" on="0"/>
        <pt x="1024" y="535" on="1"/>
        <pt x="1024" y="219" on="1"/>
        <pt x="1024" y="152" on="0"/>
        <pt x="1094" y="84" on="0"/>
        <pt x="1182" y="84" on="1"/>
        <pt x="1196" y="84" on="1"/>
        <pt x="1196" y="0" on="1"/>
        <pt x="877" y="0" on="1"/>
      </contour>
      <contour>
        <pt x="844" y="535" on="1"/>
        <pt x="844" y="728" on="0"/>
        <pt x="730" y="945" on="0"/>
        <pt x="602" y="1014" on="1"/>
        <pt x="576" y="984" on="0"/>
        <pt x="524" y="946" on="1"/>
        <pt x="299" y="778" on="0"/>
        <pt x="299" y="485" on="1"/>
        <pt x="299" y="109" on="0"/>
        <pt x="559" y="109" on="1"/>
        <pt x="712" y="109" on="0"/>
        <pt x="844" y="302" on="0"/>
      </contour>
    </TTGlyph>
    <TTGlyph name="uni0572" xMin="57" yMin="-492" xMax="1423" yMax="1118">
      <contour>
        <pt x="608" y="86" on="1"/>
        <pt x="608" y="0" on="1"/>
        <pt x="57" y="0" on="1"/>
        <pt x="57" y="86" on="1"/>
        <pt x="74" y="86" on="1"/>
        <pt x="169" y="86" on="0"/>
        <pt x="242" y="159" on="0"/>
        <pt x="242" y="233" on="1"/>
        <pt x="242" y="872" on="1"/>
        <pt x="242" y="943" on="0"/>
        <pt x="166" y="1012" on="0"/>
        <pt x="74" y="1012" on="1"/>
        <pt x="68" y="1012" on="1"/>
        <pt x="68" y="1098" on="1"/>
        <pt x="399" y="1098" on="1"/>
        <pt x="426" y="932" on="1"/>
        <pt x="436" y="932" on="1"/>
        <pt x="491" y="1029" on="0"/>
        <pt x="635" y="1118" on="0"/>
        <pt x="756" y="1118" on="1"/>
        <pt x="1100" y="1118" on="0"/>
        <pt x="1100" y="717" on="1"/>
        <pt x="1100" y="-375" on="1"/>
        <pt x="1423" y="-375" on="1"/>
        <pt x="1423" y="-492" on="1"/>
        <pt x="907" y="-492" on="1"/>
        <pt x="907" y="707" on="1"/>
        <pt x="907" y="850" on="0"/>
        <pt x="799" y="987" on="0"/>
        <pt x="682" y="987" on="1"/>
        <pt x="562" y="987" on="0"/>
        <pt x="434" y="816" on="0"/>
        <pt x="434" y="655" on="1"/>
        <pt x="434" y="223" on="1"/>
        <pt x="434" y="152" on="0"/>
        <pt x="507" y="86" on="0"/>
        <pt x="602" y="86" on="1"/>
      </contour>
    </TTGlyph>
    <TTGlyph name="uni0573" xMin="27" yMin="-20" xMax="1253" yMax="1567">
      <contour>
        <pt x="414" y="1098" on="1"/>
        <pt x="735" y="1098" on="1"/>
        <pt x="904" y="1098" on="0"/>
        <pt x="1079" y="897" on="0"/>
        <pt x="1079" y="696" on="1"/>
        <pt x="1079" y="223" on="1"/>
        <pt x="1079" y="152" on="0"/>
        <pt x="1152" y="86" on="0"/>
        <pt x="1247" y="86" on="1"/>
        <pt x="1253" y="86" on="1"/>
        <pt x="1253" y="0" on="1"/>
        <pt x="928" y="0" on="1"/>
        <pt x="901" y="166" on="1"/>
        <pt x="891" y="166" on="1"/>
        <pt x="841" y="73" on="0"/>
        <pt x="686" y="-20" on="0"/>
        <pt x="559" y="-20" on="1"/>
        <pt x="221" y="-20" on="0"/>
        <pt x="221" y="381" on="1"/>
        <pt x="221" y="981" on="1"/>
        <pt x="27" y="981" on="1"/>
        <pt x="27" y="1098" on="1"/>
        <pt x="221" y="1098" on="1"/>
        <pt x="225" y="1320" on="0"/>
        <pt x="468" y="1567" on="0"/>
        <pt x="674" y="1567" on="1"/>
        <pt x="829" y="1567" on="0"/>
        <pt x="1016" y="1465" on="0"/>
        <pt x="1016" y="1378" on="1"/>
        <pt x="1016" y="1323" on="0"/>
        <pt x="940" y="1255" on="0"/>
        <pt x="868" y="1255" on="1"/>
        <pt x="868" y="1358" on="0"/>
        <pt x="756" y="1473" on="0"/>
        <pt x="659" y="1473" on="1"/>
        <pt x="531" y="1473" on="0"/>
        <pt x="414" y="1324" on="0"/>
        <pt x="414" y="1167" on="1"/>
      </contour>
      <contour>
        <pt x="414" y="981" on="1"/>
        <pt x="414" y="391" on="1"/>
        <pt x="414" y="243" on="0"/>
        <pt x="515" y="111" on="0"/>
        <pt x="629" y="111" on="1"/>
        <pt x="754" y="111" on="0"/>
        <pt x="887" y="280" on="0"/>
        <pt x="887" y="442" on="1"/>
        <pt x="887" y="700" on="1"/>
        <pt x="887" y="845" on="0"/>
        <pt x="778" y="981" on="0"/>
        <pt x="662" y="981" on="1"/>
      </contour>
    </TTGlyph>
    <TTGlyph name="uni0574" xMin="47" yMin="-20" xMax="1253" yMax="1556">
      <contour>
        <pt x="1079" y="223" on="1"/>
        <pt x="1079" y="151" on="0"/>
        <pt x="1148" y="86" on="0"/>
        <pt x="1241" y="86" on="1"/>
        <pt x="1253" y="86" on="1"/>
        <pt x="1253" y="0" on="1"/>
        <pt x="928" y="0" on="1"/>
        <pt x="901" y="166" on="1"/>
        <pt x="891" y="166" on="1"/>
        <pt x="841" y="73" on="0"/>
        <pt x="686" y="-20" on="0"/>
        <pt x="559" y="-20" on="1"/>
        <pt x="221" y="-20" on="0"/>
        <pt x="221" y="381" on="1"/>
        <pt x="221" y="872" on="1"/>
        <pt x="221" y="944" on="0"/>
        <pt x="149" y="1012" on="0"/>
        <pt x="59" y="1012" on="1"/>
        <pt x="47" y="1012" on="1"/>
        <pt x="47" y="1098" on="1"/>
        <pt x="414" y="1098" on="1"/>
        <pt x="414" y="391" on="1"/>
        <pt x="414" y="243" on="0"/>
        <pt x="515" y="111" on="0"/>
        <pt x="629" y="111" on="1"/>
        <pt x="754" y="111" on="0"/>
        <pt x="887" y="280" on="0"/>
        <pt x="887" y="442" on="1"/>
        <pt x="887" y="1024" on="1"/>
        <pt x="715" y="1075" on="0"/>
        <pt x="715" y="1276" on="1"/>
        <pt x="715" y="1401" on="0"/>
        <pt x="889" y="1556" on="0"/>
        <pt x="1022" y="1556" on="1"/>
        <pt x="1194" y="1556" on="0"/>
        <pt x="1194" y="1477" on="1"/>
        <pt x="1194" y="1445" on="0"/>
        <pt x="1182" y="1419" on="1"/>
        <pt x="1129" y="1440" on="0"/>
        <pt x="1079" y="1440" on="1"/>
        <pt x="978" y="1440" on="0"/>
        <pt x="887" y="1347" on="0"/>
        <pt x="887" y="1270" on="1"/>
        <pt x="887" y="1188" on="0"/>
        <pt x="988" y="1098" on="0"/>
        <pt x="1079" y="1098" on="1"/>
      </contour>
    </TTGlyph>
    <TTGlyph name="uni0575" xMin="-25" yMin="-492" xMax="414" yMax="1098">
      <contour>
        <pt x="414" y="1098" on="1"/>
        <pt x="414" y="-16" on="1"/>
        <pt x="414" y="-258" on="0"/>
        <pt x="216" y="-492" on="0"/>
        <pt x="8" y="-492" on="1"/>
        <pt x="-25" y="-492" on="1"/>
        <pt x="-25" y="-395" on="1"/>
        <pt x="-10" y="-395" on="1"/>
        <pt x="113" y="-395" on="0"/>
        <pt x="221" y="-214" on="0"/>
        <pt x="221" y="-18" on="1"/>
        <pt x="221" y="872" on="1"/>
        <pt x="221" y="943" on="0"/>
        <pt x="145" y="1012" on="0"/>
        <pt x="53" y="1012" on="1"/>
        <pt x="47" y="1012" on="1"/>
        <pt x="47" y="1098" on="1"/>
      </contour>
    </TTGlyph>
    <TTGlyph name="uni0576" xMin="20" yMin="-20" xMax="1225" yMax="1556">
      <contour>
        <pt x="385" y="1440" on="1"/>
        <pt x="284" y="1440" on="0"/>
        <pt x="193" y="1347" on="0"/>
        <pt x="193" y="1270" on="1"/>
        <pt x="193" y="1188" on="0"/>
        <pt x="294" y="1098" on="0"/>
        <pt x="385" y="1098" on="1"/>
        <pt x="385" y="391" on="1"/>
        <pt x="385" y="243" on="0"/>
        <pt x="486" y="111" on="0"/>
        <pt x="600" y="111" on="1"/>
        <pt x="725" y="111" on="0"/>
        <pt x="858" y="280" on="0"/>
        <pt x="858" y="442" on="1"/>
        <pt x="858" y="864" on="1"/>
        <pt x="858" y="940" on="0"/>
        <pt x="788" y="1012" on="0"/>
        <pt x="696" y="1012" on="1"/>
        <pt x="684" y="1012" on="1"/>
        <pt x="684" y="1098" on="1"/>
        <pt x="1051" y="1098" on="1"/>
        <pt x="1051" y="223" on="1"/>
        <pt x="1051" y="152" on="0"/>
        <pt x="1121" y="86" on="0"/>
        <pt x="1214" y="86" on="1"/>
        <pt x="1225" y="86" on="1"/>
        <pt x="1225" y="0" on="1"/>
        <pt x="899" y="0" on="1"/>
        <pt x="872" y="166" on="1"/>
        <pt x="862" y="166" on="1"/>
        <pt x="812" y="72" on="0"/>
        <pt x="657" y="-20" on="0"/>
        <pt x="530" y="-20" on="1"/>
        <pt x="360" y="-20" on="0"/>
        <pt x="193" y="179" on="0"/>
        <pt x="193" y="381" on="1"/>
        <pt x="193" y="1024" on="1"/>
        <pt x="20" y="1075" on="0"/>
        <pt x="20" y="1276" on="1"/>
        <pt x="20" y="1401" on="0"/>
        <pt x="195" y="1556" on="0"/>
        <pt x="328" y="1556" on="1"/>
        <pt x="500" y="1556" on="0"/>
        <pt x="500" y="1477" on="1"/>
        <pt x="500" y="1448" on="0"/>
        <pt x="487" y="1419" on="1"/>
        <pt x="434" y="1440" on="0"/>
      </contour>
    </TTGlyph>
    <TTGlyph name="uni0577" xMin="66" yMin="-492" xMax="944" yMax="1118">
      <contour>
        <pt x="928" y="-375" on="1"/>
        <pt x="928" y="-492" on="1"/>
        <pt x="180" y="-492" on="1"/>
        <pt x="134" y="-492" on="0"/>
        <pt x="70" y="-436" on="0"/>
        <pt x="70" y="-391" on="1"/>
        <pt x="70" y="-344" on="0"/>
        <pt x="143" y="-240" on="0"/>
        <pt x="219" y="-168" on="1"/>
        <pt x="413" y="10" on="0"/>
        <pt x="645" y="279" on="0"/>
        <pt x="745" y="500" on="0"/>
        <pt x="745" y="637" on="1"/>
        <pt x="745" y="825" on="0"/>
        <pt x="607" y="1012" on="0"/>
        <pt x="463" y="1012" on="1"/>
        <pt x="355" y="1012" on="0"/>
        <pt x="215" y="871" on="0"/>
        <pt x="215" y="764" on="1"/>
        <pt x="66" y="764" on="0"/>
        <pt x="66" y="881" on="1"/>
        <pt x="66" y="919" on="0"/>
        <pt x="131" y="1013" on="0"/>
        <pt x="241" y="1082" on="0"/>
        <pt x="386" y="1118" on="0"/>
        <pt x="475" y="1118" on="1"/>
        <pt x="700" y="1118" on="0"/>
        <pt x="944" y="874" on="0"/>
        <pt x="944" y="651" on="1"/>
        <pt x="944" y="463" on="0"/>
        <pt x="721" y="119" on="0"/>
        <pt x="430" y="-139" on="1"/>
        <pt x="364" y="-197" on="0"/>
        <pt x="293" y="-267" on="0"/>
        <pt x="264" y="-308" on="0"/>
        <pt x="264" y="-328" on="1"/>
        <pt x="264" y="-351" on="0"/>
        <pt x="299" y="-375" on="0"/>
        <pt x="328" y="-375" on="1"/>
      </contour>
    </TTGlyph>
    <TTGlyph name="uni0578" xMin="57" yMin="0" xMax="1264" yMax="1118">
      <contour>
        <pt x="608" y="86" on="1"/>
        <pt x="608" y="0" on="1"/>
        <pt x="57" y="0" on="1"/>
        <pt x="57" y="86" on="1"/>
        <pt x="74" y="86" on="1"/>
        <pt x="169" y="86" on="0"/>
        <pt x="242" y="159" on="0"/>
        <pt x="242" y="233" on="1"/>
        <pt x="242" y="872" on="1"/>
        <pt x="242" y="943" on="0"/>
        <pt x="166" y="1012" on="0"/>
        <pt x="74" y="1012" on="1"/>
        <pt x="68" y="1012" on="1"/>
        <pt x="68" y="1098" on="1"/>
        <pt x="399" y="1098" on="1"/>
        <pt x="426" y="932" on="1"/>
        <pt x="436" y="932" on="1"/>
        <pt x="491" y="1029" on="0"/>
        <pt x="635" y="1118" on="0"/>
        <pt x="756" y="1118" on="1"/>
        <pt x="1100" y="1118" on="0"/>
        <pt x="1100" y="717" on="1"/>
        <pt x="1100" y="233" on="1"/>
        <pt x="1100" y="155" on="0"/>
        <pt x="1168" y="86" on="0"/>
        <pt x="1257" y="86" on="1"/>
        <pt x="1264" y="86" on="1"/>
        <pt x="1264" y="0" on="1"/>
        <pt x="907" y="0" on="1"/>
        <pt x="907" y="707" on="1"/>
        <pt x="907" y="850" on="0"/>
        <pt x="799" y="987" on="0"/>
        <pt x="682" y="987" on="1"/>
        <pt x="562" y="987" on="0"/>
        <pt x="434" y="816" on="0"/>
        <pt x="434" y="655" on="1"/>
        <pt x="434" y="223" on="1"/>
        <pt x="434" y="152" on="0"/>
        <pt x="507" y="86" on="0"/>
        <pt x="602" y="86" on="1"/>
      </contour>
    </TTGlyph>
    <TTGlyph name="uni0579" xMin="-41" yMin="-492" xMax="848" yMax="1133">
      <contour>
        <pt x="713" y="276" on="1"/>
        <pt x="713" y="244" on="0"/>
        <pt x="674" y="179" on="0"/>
        <pt x="649" y="158" on="1"/>
        <pt x="231" y="-215" on="1"/>
        <pt x="154" y="-283" on="0"/>
        <pt x="154" y="-328" on="1"/>
        <pt x="154" y="-375" on="0"/>
        <pt x="240" y="-375" on="1"/>
        <pt x="848" y="-375" on="1"/>
        <pt x="848" y="-492" on="1"/>
        <pt x="70" y="-492" on="1"/>
        <pt x="23" y="-492" on="0"/>
        <pt x="-41" y="-436" on="0"/>
        <pt x="-41" y="-391" on="1"/>
        <pt x="-41" y="-308" on="0"/>
        <pt x="109" y="-174" on="1"/>
        <pt x="442" y="127" on="1"/>
        <pt x="482" y="164" on="0"/>
        <pt x="516" y="215" on="0"/>
        <pt x="516" y="246" on="1"/>
        <pt x="516" y="274" on="0"/>
        <pt x="496" y="321" on="0"/>
        <pt x="473" y="352" on="1"/>
        <pt x="162" y="780" on="1"/>
        <pt x="110" y="853" on="0"/>
        <pt x="78" y="926" on="0"/>
        <pt x="78" y="961" on="1"/>
        <pt x="78" y="1023" on="0"/>
        <pt x="158" y="1044" on="1"/>
        <pt x="463" y="1133" on="1"/>
        <pt x="485" y="1051" on="1"/>
        <pt x="414" y="1030" on="1"/>
        <pt x="315" y="1006" on="0"/>
        <pt x="315" y="936" on="1"/>
        <pt x="315" y="894" on="0"/>
        <pt x="358" y="831" on="1"/>
        <pt x="666" y="403" on="1"/>
        <pt x="713" y="338" on="0"/>
      </contour>
    </TTGlyph>
    <TTGlyph name="uni057A" xMin="57" yMin="-492" xMax="1868" yMax="1098">
      <contour>
        <pt x="1499" y="166" on="1"/>
        <pt x="1447" y="68" on="0"/>
        <pt x="1306" y="-20" on="0"/>
        <pt x="1190" y="-20" on="1"/>
        <pt x="1078" y="-20" on="0"/>
        <pt x="927" y="75" on="0"/>
        <pt x="893" y="166" on="1"/>
        <pt x="877" y="166" on="1"/>
        <pt x="826" y="70" on="0"/>
        <pt x="675" y="-20" on="0"/>
        <pt x="555" y="-20" on="1"/>
        <pt x="221" y="-20" on="0"/>
        <pt x="221" y="381" on="1"/>
        <pt x="221" y="864" on="1"/>
        <pt x="221" y="943" on="0"/>
        <pt x="154" y="1012" on="0"/>
        <pt x="63" y="1012" on="1"/>
        <pt x="57" y="1012" on="1"/>
        <pt x="57" y="1098" on="1"/>
        <pt x="414" y="1098" on="1"/>
        <pt x="414" y="391" on="1"/>
        <pt x="414" y="248" on="0"/>
        <pt x="518" y="111" on="0"/>
        <pt x="629" y="111" on="1"/>
        <pt x="740" y="111" on="0"/>
        <pt x="856" y="268" on="0"/>
        <pt x="856" y="416" on="1"/>
        <pt x="856" y="864" on="1"/>
        <pt x="856" y="943" on="0"/>
        <pt x="789" y="1012" on="0"/>
        <pt x="698" y="1012" on="1"/>
        <pt x="692" y="1012" on="1"/>
        <pt x="692" y="1098" on="1"/>
        <pt x="1049" y="1098" on="1"/>
        <pt x="1049" y="391" on="1"/>
        <pt x="1049" y="248" on="0"/>
        <pt x="1153" y="111" on="0"/>
        <pt x="1264" y="111" on="1"/>
        <pt x="1379" y="111" on="0"/>
        <pt x="1501" y="281" on="0"/>
        <pt x="1501" y="442" on="1"/>
        <pt x="1501" y="874" on="1"/>
        <pt x="1501" y="944" on="0"/>
        <pt x="1428" y="1012" on="0"/>
        <pt x="1333" y="1012" on="1"/>
        <pt x="1327" y="1012" on="1"/>
        <pt x="1327" y="1098" on="1"/>
        <pt x="1694" y="1098" on="1"/>
        <pt x="1694" y="-268" on="1"/>
        <pt x="1694" y="-338" on="0"/>
        <pt x="1764" y="-406" on="0"/>
        <pt x="1858" y="-406" on="1"/>
        <pt x="1868" y="-406" on="1"/>
        <pt x="1868" y="-492" on="1"/>
        <pt x="1501" y="-492" on="1"/>
        <pt x="1501" y="0" on="1"/>
        <pt x="1501" y="105" on="0"/>
        <pt x="1509" y="166" on="1"/>
      </contour>
    </TTGlyph>
    <TTGlyph name="uni057B" xMin="102" yMin="-492" xMax="1053" yMax="1118">
      <contour>
        <pt x="532" y="14" on="1"/>
        <pt x="309" y="122" on="0"/>
        <pt x="102" y="404" on="0"/>
        <pt x="102" y="598" on="1"/>
        <pt x="102" y="842" on="0"/>
        <pt x="359" y="1118" on="0"/>
        <pt x="578" y="1118" on="1"/>
        <pt x="802" y="1118" on="0"/>
        <pt x="1053" y="875" on="0"/>
        <pt x="1053" y="655" on="1"/>
        <pt x="1053" y="505" on="0"/>
        <pt x="962" y="283" on="0"/>
        <pt x="751" y="48" on="0"/>
        <pt x="520" y="-145" on="1"/>
        <pt x="402" y="-245" on="0"/>
        <pt x="342" y="-307" on="0"/>
        <pt x="342" y="-328" on="1"/>
        <pt x="342" y="-351" on="0"/>
        <pt x="377" y="-375" on="0"/>
        <pt x="406" y="-375" on="1"/>
        <pt x="1014" y="-375" on="1"/>
        <pt x="1014" y="-492" on="1"/>
        <pt x="287" y="-492" on="1"/>
        <pt x="240" y="-492" on="0"/>
        <pt x="176" y="-436" on="0"/>
        <pt x="176" y="-391" on="1"/>
        <pt x="176" y="-341" on="0"/>
        <pt x="255" y="-235" on="0"/>
        <pt x="326" y="-172" on="1"/>
      </contour>
      <contour>
        <pt x="578" y="1012" on="1"/>
        <pt x="449" y="1012" on="0"/>
        <pt x="301" y="796" on="0"/>
        <pt x="301" y="602" on="1"/>
        <pt x="301" y="445" on="0"/>
        <pt x="449" y="179" on="0"/>
        <pt x="596" y="80" on="1"/>
        <pt x="739" y="229" on="0"/>
        <pt x="854" y="483" on="0"/>
        <pt x="854" y="649" on="1"/>
        <pt x="854" y="828" on="0"/>
        <pt x="720" y="1012" on="0"/>
      </contour>
    </TTGlyph>
    <TTGlyph name="uni057C" xMin="57" yMin="0" xMax="1245" yMax="1118">
      <contour>
        <pt x="795" y="84" on="1"/>
        <pt x="876" y="223" on="0"/>
        <pt x="944" y="474" on="0"/>
        <pt x="944" y="641" on="1"/>
        <pt x="944" y="807" on="0"/>
        <pt x="808" y="987" on="0"/>
        <pt x="682" y="987" on="1"/>
        <pt x="562" y="987" on="0"/>
        <pt x="434" y="816" on="0"/>
        <pt x="434" y="655" on="1"/>
        <pt x="434" y="223" on="1"/>
        <pt x="434" y="152" on="0"/>
        <pt x="507" y="86" on="0"/>
        <pt x="602" y="86" on="1"/>
        <pt x="608" y="86" on="1"/>
        <pt x="608" y="0" on="1"/>
        <pt x="57" y="0" on="1"/>
        <pt x="57" y="86" on="1"/>
        <pt x="74" y="86" on="1"/>
        <pt x="169" y="86" on="0"/>
        <pt x="242" y="159" on="0"/>
        <pt x="242" y="233" on="1"/>
        <pt x="242" y="872" on="1"/>
        <pt x="242" y="943" on="0"/>
        <pt x="166" y="1012" on="0"/>
        <pt x="74" y="1012" on="1"/>
        <pt x="68" y="1012" on="1"/>
        <pt x="68" y="1098" on="1"/>
        <pt x="399" y="1098" on="1"/>
        <pt x="426" y="932" on="1"/>
        <pt x="436" y="932" on="1"/>
        <pt x="491" y="1029" on="0"/>
        <pt x="635" y="1118" on="0"/>
        <pt x="756" y="1118" on="1"/>
        <pt x="936" y="1118" on="0"/>
        <pt x="1143" y="870" on="0"/>
        <pt x="1143" y="649" on="1"/>
        <pt x="1143" y="510" on="0"/>
        <pt x="1038" y="253" on="0"/>
        <pt x="918" y="117" on="1"/>
        <pt x="1245" y="117" on="1"/>
        <pt x="1245" y="0" on="1"/>
        <pt x="795" y="0" on="1"/>
      </contour>
    </TTGlyph>
    <TTGlyph name="uni057D" xMin="47" yMin="-20" xMax="1253" yMax="1098">
      <contour>
        <pt x="1079" y="223" on="1"/>
        <pt x="1079" y="152" on="0"/>
        <pt x="1152" y="86" on="0"/>
        <pt x="1247" y="86" on="1"/>
        <pt x="1253" y="86" on="1"/>
        <pt x="1253" y="0" on="1"/>
        <pt x="928" y="0" on="1"/>
        <pt x="901" y="166" on="1"/>
        <pt x="891" y="166" on="1"/>
        <pt x="841" y="73" on="0"/>
        <pt x="686" y="-20" on="0"/>
        <pt x="559" y="-20" on="1"/>
        <pt x="221" y="-20" on="0"/>
        <pt x="221" y="381" on="1"/>
        <pt x="221" y="872" on="1"/>
        <pt x="221" y="943" on="0"/>
        <pt x="145" y="1012" on="0"/>
        <pt x="53" y="1012" on="1"/>
        <pt x="47" y="1012" on="1"/>
        <pt x="47" y="1098" on="1"/>
        <pt x="414" y="1098" on="1"/>
        <pt x="414" y="391" on="1"/>
        <pt x="414" y="243" on="0"/>
        <pt x="515" y="111" on="0"/>
        <pt x="629" y="111" on="1"/>
        <pt x="754" y="111" on="0"/>
        <pt x="887" y="280" on="0"/>
        <pt x="887" y="442" on="1"/>
        <pt x="887" y="864" on="1"/>
        <pt x="887" y="939" on="0"/>
        <pt x="814" y="1012" on="0"/>
        <pt x="719" y="1012" on="1"/>
        <pt x="713" y="1012" on="1"/>
        <pt x="713" y="1098" on="1"/>
        <pt x="1079" y="1098" on="1"/>
      </contour>
    </TTGlyph>
    <TTGlyph name="uni057E" xMin="47" yMin="-492" xMax="1403" yMax="1556">
      <contour>
        <pt x="887" y="0" on="1"/>
        <pt x="887" y="93" on="0"/>
        <pt x="901" y="166" on="1"/>
        <pt x="891" y="166" on="1"/>
        <pt x="841" y="73" on="0"/>
        <pt x="686" y="-20" on="0"/>
        <pt x="559" y="-20" on="1"/>
        <pt x="221" y="-20" on="0"/>
        <pt x="221" y="381" on="1"/>
        <pt x="221" y="872" on="1"/>
        <pt x="221" y="942" on="0"/>
        <pt x="147" y="1012" on="0"/>
        <pt x="55" y="1012" on="1"/>
        <pt x="47" y="1012" on="1"/>
        <pt x="47" y="1098" on="1"/>
        <pt x="414" y="1098" on="1"/>
        <pt x="414" y="391" on="1"/>
        <pt x="414" y="243" on="0"/>
        <pt x="515" y="111" on="0"/>
        <pt x="629" y="111" on="1"/>
        <pt x="754" y="111" on="0"/>
        <pt x="887" y="280" on="0"/>
        <pt x="887" y="442" on="1"/>
        <pt x="887" y="1323" on="1"/>
        <pt x="887" y="1399" on="0"/>
        <pt x="814" y="1470" on="0"/>
        <pt x="721" y="1470" on="1"/>
        <pt x="713" y="1470" on="1"/>
        <pt x="713" y="1556" on="1"/>
        <pt x="1079" y="1556" on="1"/>
        <pt x="1079" y="-375" on="1"/>
        <pt x="1403" y="-375" on="1"/>
        <pt x="1403" y="-492" on="1"/>
        <pt x="887" y="-492" on="1"/>
      </contour>
    </TTGlyph>
    <TTGlyph name="uni057F" xMin="47" yMin="-20" xMax="1868" yMax="1118">
      <contour>
        <pt x="1024" y="1098" on="1"/>
        <pt x="1051" y="932" on="1"/>
        <pt x="1061" y="932" on="1"/>
        <pt x="1118" y="1034" on="0"/>
        <pt x="1254" y="1118" on="0"/>
        <pt x="1370" y="1118" on="1"/>
        <pt x="1704" y="1118" on="0"/>
        <pt x="1704" y="717" on="1"/>
        <pt x="1704" y="233" on="1"/>
        <pt x="1704" y="155" on="0"/>
        <pt x="1772" y="86" on="0"/>
        <pt x="1862" y="86" on="1"/>
        <pt x="1868" y="86" on="1"/>
        <pt x="1868" y="0" on="1"/>
        <pt x="1511" y="0" on="1"/>
        <pt x="1511" y="707" on="1"/>
        <pt x="1511" y="858" on="0"/>
        <pt x="1409" y="987" on="0"/>
        <pt x="1296" y="987" on="1"/>
        <pt x="1059" y="987" on="0"/>
        <pt x="1059" y="655" on="1"/>
        <pt x="1059" y="0" on="1"/>
        <pt x="907" y="0" on="1"/>
        <pt x="881" y="166" on="1"/>
        <pt x="870" y="166" on="1"/>
        <pt x="819" y="70" on="0"/>
        <pt x="671" y="-20" on="0"/>
        <pt x="549" y="-20" on="1"/>
        <pt x="382" y="-20" on="0"/>
        <pt x="221" y="175" on="0"/>
        <pt x="221" y="381" on="1"/>
        <pt x="221" y="872" on="1"/>
        <pt x="221" y="943" on="0"/>
        <pt x="145" y="1012" on="0"/>
        <pt x="53" y="1012" on="1"/>
        <pt x="47" y="1012" on="1"/>
        <pt x="47" y="1098" on="1"/>
        <pt x="414" y="1098" on="1"/>
        <pt x="414" y="391" on="1"/>
        <pt x="414" y="235" on="0"/>
        <pt x="510" y="111" on="0"/>
        <pt x="618" y="111" on="1"/>
        <pt x="866" y="111" on="0"/>
        <pt x="866" y="442" on="1"/>
        <pt x="866" y="1098" on="1"/>
      </contour>
    </TTGlyph>
    <TTGlyph name="uni0580" xMin="68" yMin="-492" xMax="1264" yMax="1118">
      <contour>
        <pt x="434" y="-258" on="1"/>
        <pt x="434" y="-334" on="0"/>
        <pt x="501" y="-406" on="0"/>
        <pt x="592" y="-406" on="1"/>
        <pt x="639" y="-406" on="1"/>
        <pt x="639" y="-492" on="1"/>
        <pt x="242" y="-492" on="1"/>
        <pt x="242" y="872" on="1"/>
        <pt x="242" y="944" on="0"/>
        <pt x="167" y="1012" on="0"/>
        <pt x="78" y="1012" on="1"/>
        <pt x="68" y="1012" on="1"/>
        <pt x="68" y="1098" on="1"/>
        <pt x="399" y="1098" on="1"/>
        <pt x="426" y="932" on="1"/>
        <pt x="436" y="932" on="1"/>
        <pt x="491" y="1029" on="0"/>
        <pt x="635" y="1118" on="0"/>
        <pt x="756" y="1118" on="1"/>
        <pt x="1100" y="1118" on="0"/>
        <pt x="1100" y="717" on="1"/>
        <pt x="1100" y="233" on="1"/>
        <pt x="1100" y="155" on="0"/>
        <pt x="1165" y="86" on="0"/>
        <pt x="1253" y="86" on="1"/>
        <pt x="1264" y="86" on="1"/>
        <pt x="1264" y="0" on="1"/>
        <pt x="907" y="0" on="1"/>
        <pt x="907" y="707" on="1"/>
        <pt x="907" y="850" on="0"/>
        <pt x="799" y="987" on="0"/>
        <pt x="682" y="987" on="1"/>
        <pt x="562" y="987" on="0"/>
        <pt x="434" y="816" on="0"/>
        <pt x="434" y="655" on="1"/>
      </contour>
    </TTGlyph>
    <TTGlyph name="uni0581" xMin="113" yMin="-492" xMax="1036" yMax="1118">
      <contour>
        <pt x="1036" y="2" on="1"/>
        <pt x="1036" y="-223" on="0"/>
        <pt x="775" y="-492" on="0"/>
        <pt x="559" y="-492" on="1"/>
        <pt x="439" y="-492" on="0"/>
        <pt x="269" y="-421" on="0"/>
        <pt x="176" y="-302" on="0"/>
        <pt x="176" y="-233" on="1"/>
        <pt x="176" y="-170" on="0"/>
        <pt x="252" y="-102" on="0"/>
        <pt x="324" y="-102" on="1"/>
        <pt x="324" y="-238" on="0"/>
        <pt x="448" y="-397" on="0"/>
        <pt x="557" y="-397" on="1"/>
        <pt x="712" y="-397" on="0"/>
        <pt x="844" y="-222" on="0"/>
        <pt x="844" y="-8" on="1"/>
        <pt x="844" y="4" on="1"/>
        <pt x="844" y="48" on="0"/>
        <pt x="852" y="184" on="1"/>
        <pt x="844" y="184" on="1"/>
        <pt x="744" y="-20" on="0"/>
        <pt x="530" y="-20" on="1"/>
        <pt x="113" y="-20" on="0"/>
        <pt x="113" y="547" on="1"/>
        <pt x="113" y="835" on="0"/>
        <pt x="320" y="1118" on="0"/>
        <pt x="530" y="1118" on="1"/>
        <pt x="745" y="1118" on="0"/>
        <pt x="844" y="938" on="1"/>
        <pt x="856" y="938" on="1"/>
        <pt x="893" y="1098" on="1"/>
        <pt x="1036" y="1098" on="1"/>
      </contour>
      <contour>
        <pt x="565" y="111" on="1"/>
        <pt x="714" y="111" on="0"/>
        <pt x="844" y="309" on="0"/>
        <pt x="844" y="547" on="1"/>
        <pt x="844" y="785" on="0"/>
        <pt x="709" y="987" on="0"/>
        <pt x="563" y="987" on="1"/>
        <pt x="436" y="987" on="0"/>
        <pt x="311" y="774" on="0"/>
        <pt x="311" y="545" on="1"/>
        <pt x="311" y="327" on="0"/>
        <pt x="429" y="111" on="0"/>
      </contour>
    </TTGlyph>
    <TTGlyph name="uni0582" xMin="57" yMin="0" xMax="748" yMax="1098">
      <contour>
        <pt x="231" y="872" on="1"/>
        <pt x="231" y="943" on="0"/>
        <pt x="155" y="1012" on="0"/>
        <pt x="63" y="1012" on="1"/>
        <pt x="57" y="1012" on="1"/>
        <pt x="57" y="1098" on="1"/>
        <pt x="424" y="1098" on="1"/>
        <pt x="424" y="117" on="1"/>
        <pt x="748" y="117" on="1"/>
        <pt x="748" y="0" on="1"/>
        <pt x="231" y="0" on="1"/>
      </contour>
    </TTGlyph>
    <TTGlyph name="uni0583" xMin="47" yMin="-492" xMax="1868" yMax="1556">
      <contour>
        <pt x="864" y="158" on="1"/>
        <pt x="829" y="93" on="0"/>
        <pt x="746" y="16" on="0"/>
        <pt x="642" y="-20" on="0"/>
        <pt x="549" y="-20" on="1"/>
        <pt x="382" y="-20" on="0"/>
        <pt x="221" y="175" on="0"/>
        <pt x="221" y="381" on="1"/>
        <pt x="221" y="872" on="1"/>
        <pt x="221" y="943" on="0"/>
        <pt x="145" y="1012" on="0"/>
        <pt x="53" y="1012" on="1"/>
        <pt x="47" y="1012" on="1"/>
        <pt x="47" y="1098" on="1"/>
        <pt x="414" y="1098" on="1"/>
        <pt x="414" y="391" on="1"/>
        <pt x="414" y="235" on="0"/>
        <pt x="510" y="111" on="0"/>
        <pt x="618" y="111" on="1"/>
        <pt x="866" y="111" on="0"/>
        <pt x="866" y="442" on="1"/>
        <pt x="866" y="1331" on="1"/>
        <pt x="866" y="1381" on="0"/>
        <pt x="831" y="1442" on="0"/>
        <pt x="764" y="1470" on="0"/>
        <pt x="698" y="1470" on="1"/>
        <pt x="682" y="1470" on="1"/>
        <pt x="682" y="1556" on="1"/>
        <pt x="1059" y="1556" on="1"/>
        <pt x="1059" y="1106" on="1"/>
        <pt x="1059" y="1048" on="0"/>
        <pt x="1051" y="932" on="1"/>
        <pt x="1061" y="932" on="1"/>
        <pt x="1118" y="1034" on="0"/>
        <pt x="1254" y="1118" on="0"/>
        <pt x="1370" y="1118" on="1"/>
        <pt x="1704" y="1118" on="0"/>
        <pt x="1704" y="717" on="1"/>
        <pt x="1704" y="233" on="1"/>
        <pt x="1704" y="155" on="0"/>
        <pt x="1772" y="86" on="0"/>
        <pt x="1862" y="86" on="1"/>
        <pt x="1868" y="86" on="1"/>
        <pt x="1868" y="0" on="1"/>
        <pt x="1511" y="0" on="1"/>
        <pt x="1511" y="707" on="1"/>
        <pt x="1511" y="858" on="0"/>
        <pt x="1409" y="987" on="0"/>
        <pt x="1296" y="987" on="1"/>
        <pt x="1059" y="987" on="0"/>
        <pt x="1059" y="655" on="1"/>
        <pt x="1059" y="-266" on="1"/>
        <pt x="1059" y="-337" on="0"/>
        <pt x="1135" y="-406" on="0"/>
        <pt x="1227" y="-406" on="1"/>
        <pt x="1243" y="-406" on="1"/>
        <pt x="1243" y="-492" on="1"/>
        <pt x="866" y="-492" on="1"/>
        <pt x="866" y="-16" on="1"/>
        <pt x="866" y="38" on="0"/>
        <pt x="874" y="158" on="1"/>
      </contour>
    </TTGlyph>
    <TTGlyph name="uni0584" xMin="27" yMin="-492" xMax="1145" yMax="1118">
      <contour>
        <pt x="27" y="-154" on="1"/>
        <pt x="221" y="-154" on="1"/>
        <pt x="221" y="872" on="1"/>
        <pt x="221" y="943" on="0"/>
        <pt x="145" y="1012" on="0"/>
        <pt x="53" y="1012" on="1"/>
        <pt x="27" y="1012" on="1"/>
        <pt x="27" y="1098" on="1"/>
        <pt x="385" y="1098" on="1"/>
        <pt x="406" y="913" on="1"/>
        <pt x="414" y="913" on="1"/>
        <pt x="467" y="1021" on="0"/>
        <pt x="620" y="1118" on="0"/>
        <pt x="727" y="1118" on="1"/>
        <pt x="939" y="1118" on="0"/>
        <pt x="1145" y="841" on="0"/>
        <pt x="1145" y="561" on="1"/>
        <pt x="1145" y="279" on="0"/>
        <pt x="940" y="0" on="0"/>
        <pt x="727" y="0" on="1"/>
        <pt x="513" y="0" on="0"/>
        <pt x="414" y="180" on="1"/>
        <pt x="406" y="180" on="1"/>
        <pt x="414" y="-51" on="1"/>
        <pt x="414" y="-154" on="1"/>
        <pt x="1104" y="-154" on="1"/>
        <pt x="1104" y="-270" on="1"/>
        <pt x="414" y="-270" on="1"/>
        <pt x="414" y="-492" on="1"/>
        <pt x="221" y="-492" on="1"/>
        <pt x="221" y="-270" on="1"/>
        <pt x="27" y="-270" on="1"/>
      </contour>
      <contour>
        <pt x="692" y="987" on="1"/>
        <pt x="540" y="987" on="0"/>
        <pt x="414" y="794" on="0"/>
        <pt x="414" y="561" on="1"/>
        <pt x="414" y="328" on="0"/>
        <pt x="545" y="131" on="0"/>
        <pt x="694" y="131" on="1"/>
        <pt x="829" y="131" on="0"/>
        <pt x="946" y="348" on="0"/>
        <pt x="946" y="563" on="1"/>
        <pt x="946" y="788" on="0"/>
        <pt x="825" y="987" on="0"/>
      </contour>
    </TTGlyph>
    <TTGlyph name="uni0585" xMin="113" yMin="-20" xMax="1069" yMax="1118">
      <contour>
        <pt x="1069" y="551" on="1"/>
        <pt x="1069" y="-20" on="0"/>
        <pt x="588" y="-20" on="1"/>
        <pt x="357" y="-20" on="0"/>
        <pt x="113" y="273" on="0"/>
        <pt x="113" y="551" on="1"/>
        <pt x="113" y="1118" on="0"/>
        <pt x="594" y="1118" on="1"/>
        <pt x="825" y="1118" on="0"/>
        <pt x="1069" y="829" on="0"/>
      </contour>
      <contour>
        <pt x="311" y="551" on="1"/>
        <pt x="311" y="308" on="0"/>
        <pt x="447" y="86" on="0"/>
        <pt x="592" y="86" on="1"/>
        <pt x="735" y="86" on="0"/>
        <pt x="870" y="305" on="0"/>
        <pt x="870" y="551" on="1"/>
        <pt x="870" y="791" on="0"/>
        <pt x="737" y="1012" on="0"/>
        <pt x="590" y="1012" on="1"/>
        <pt x="444" y="1012" on="0"/>
        <pt x="311" y="792" on="0"/>
      </contour>
    </TTGlyph>
    <TTGlyph name="uni0586" xMin="78" yMin="-492" xMax="1079" yMax="1567">
      <contour>
        <pt x="674" y="852" on="1"/>
        <pt x="886" y="767" on="0"/>
        <pt x="1079" y="554" on="0"/>
        <pt x="1079" y="412" on="1"/>
        <pt x="1079" y="236" on="0"/>
        <pt x="864" y="13" on="0"/>
        <pt x="674" y="-10" on="1"/>
        <pt x="674" y="-268" on="1"/>
        <pt x="674" y="-338" on="0"/>
        <pt x="747" y="-406" on="0"/>
        <pt x="842" y="-406" on="1"/>
        <pt x="856" y="-406" on="1"/>
        <pt x="856" y="-492" on="1"/>
        <pt x="498" y="-492" on="1"/>
        <pt x="498" y="-10" on="1"/>
        <pt x="301" y="1" on="0"/>
        <pt x="78" y="145" on="0"/>
        <pt x="78" y="262" on="1"/>
        <pt x="78" y="317" on="0"/>
        <pt x="152" y="395" on="0"/>
        <pt x="207" y="395" on="1"/>
        <pt x="216" y="252" on="0"/>
        <pt x="365" y="106" on="0"/>
        <pt x="498" y="90" on="1"/>
        <pt x="498" y="727" on="1"/>
        <pt x="299" y="813" on="0"/>
        <pt x="113" y="1035" on="0"/>
        <pt x="113" y="1176" on="1"/>
        <pt x="113" y="1354" on="0"/>
        <pt x="360" y="1567" on="0"/>
        <pt x="561" y="1567" on="1"/>
        <pt x="606" y="1567" on="0"/>
        <pt x="674" y="1556" on="1"/>
      </contour>
      <contour>
        <pt x="913" y="350" on="1"/>
        <pt x="913" y="560" on="0"/>
        <pt x="674" y="662" on="1"/>
        <pt x="674" y="94" on="1"/>
        <pt x="781" y="112" on="0"/>
        <pt x="913" y="251" on="0"/>
      </contour>
      <contour>
        <pt x="279" y="1217" on="1"/>
        <pt x="279" y="1018" on="0"/>
        <pt x="498" y="920" on="1"/>
        <pt x="498" y="1466" on="1"/>
        <pt x="394" y="1451" on="0"/>
        <pt x="279" y="1320" on="0"/>
      </contour>
    </TTGlyph>
    <TTGlyph name="uni0587" xMin="47" yMin="-20" xMax="1403" yMax="1554">
      <contour>
        <pt x="901" y="166" on="1"/>
        <pt x="891" y="166" on="1"/>
        <pt x="841" y="73" on="0"/>
        <pt x="686" y="-20" on="0"/>
        <pt x="559" y="-20" on="1"/>
        <pt x="221" y="-20" on="0"/>
        <pt x="221" y="381" on="1"/>
        <pt x="221" y="1329" on="1"/>
        <pt x="221" y="1400" on="0"/>
        <pt x="149" y="1468" on="0"/>
        <pt x="57" y="1468" on="1"/>
        <pt x="47" y="1468" on="1"/>
        <pt x="47" y="1554" on="1"/>
        <pt x="414" y="1554" on="1"/>
        <pt x="414" y="391" on="1"/>
        <pt x="414" y="243" on="0"/>
        <pt x="515" y="111" on="0"/>
        <pt x="629" y="111" on="1"/>
        <pt x="754" y="111" on="0"/>
        <pt x="887" y="280" on="0"/>
        <pt x="887" y="442" on="1"/>
        <pt x="887" y="864" on="1"/>
        <pt x="887" y="941" on="0"/>
        <pt x="816" y="1012" on="0"/>
        <pt x="723" y="1012" on="1"/>
        <pt x="713" y="1012" on="1"/>
        <pt x="713" y="1098" on="1"/>
        <pt x="1079" y="1098" on="1"/>
        <pt x="1079" y="117" on="1"/>
        <pt x="1403" y="117" on="1"/>
        <pt x="1403" y="0" on="1"/>
        <pt x="928" y="0" on="1"/>
      </contour>
    </TTGlyph>
    <TTGlyph name="uni0589" xMin="166" yMin="-14" xMax="424" yMax="1108">
      <contour>
        <pt x="166" y="125" on="1"/>
        <pt x="166" y="264" on="0"/>
        <pt x="295" y="264" on="1"/>
        <pt x="358" y="264" on="0"/>
        <pt x="424" y="192" on="0"/>
        <pt x="424" y="125" on="1"/>
        <pt x="424" y="58" on="0"/>
        <pt x="359" y="-14" on="0"/>
        <pt x="295" y="-14" on="1"/>
        <pt x="166" y="-14" on="0"/>
      </contour>
      <contour>
        <pt x="166" y="969" on="1"/>
        <pt x="166" y="1108" on="0"/>
        <pt x="295" y="1108" on="1"/>
        <pt x="358" y="1108" on="0"/>
        <pt x="424" y="1036" on="0"/>
        <pt x="424" y="969" on="1"/>
        <pt x="424" y="902" on="0"/>
        <pt x="359" y="829" on="0"/>
        <pt x="295" y="829" on="1"/>
        <pt x="166" y="829" on="0"/>
      </contour>
    </TTGlyph>
    <TTGlyph name="uni058A" xMin="102" yMin="414" xMax="797" yMax="692">
      <contour>
        <pt x="262" y="692" on="1"/>
        <pt x="262" y="537" on="0"/>
        <pt x="414" y="537" on="1"/>
        <pt x="573" y="537" on="0"/>
        <pt x="772" y="588" on="1"/>
        <pt x="797" y="518" on="1"/>
        <pt x="594" y="414" on="0"/>
        <pt x="377" y="414" on="1"/>
        <pt x="242" y="414" on="0"/>
        <pt x="102" y="545" on="0"/>
        <pt x="102" y="692" on="1"/>
      </contour>
    </TTGlyph>
    <TTGlyph name="uni058F" xMin="47" yMin="0" xMax="999" yMax="1483">
      <contour>
        <pt x="569" y="643" on="1"/>
        <pt x="569" y="786" on="1"/>
        <pt x="268" y="786" on="1"/>
        <pt x="268" y="883" on="1"/>
        <pt x="569" y="883" on="1"/>
        <pt x="569" y="1077" on="1"/>
        <pt x="569" y="1158" on="0"/>
        <pt x="551" y="1273" on="0"/>
        <pt x="509" y="1346" on="0"/>
        <pt x="440" y="1380" on="0"/>
        <pt x="389" y="1380" on="1"/>
        <pt x="348" y="1380" on="0"/>
        <pt x="284" y="1352" on="0"/>
        <pt x="239" y="1287" on="0"/>
        <pt x="215" y="1182" on="0"/>
        <pt x="215" y="1104" on="1"/>
        <pt x="124" y="1104" on="0"/>
        <pt x="47" y="1176" on="0"/>
        <pt x="47" y="1239" on="1"/>
        <pt x="47" y="1270" on="0"/>
        <pt x="81" y="1354" on="0"/>
        <pt x="162" y="1430" on="0"/>
        <pt x="298" y="1483" on="0"/>
        <pt x="399" y="1483" on="1"/>
        <pt x="494" y="1483" on="0"/>
        <pt x="631" y="1428" on="0"/>
        <pt x="720" y="1324" on="0"/>
        <pt x="762" y="1175" on="0"/>
        <pt x="762" y="1081" on="1"/>
        <pt x="762" y="883" on="1"/>
        <pt x="999" y="883" on="1"/>
        <pt x="999" y="786" on="1"/>
        <pt x="762" y="786" on="1"/>
        <pt x="762" y="643" on="1"/>
        <pt x="999" y="643" on="1"/>
        <pt x="999" y="547" on="1"/>
        <pt x="762" y="547" on="1"/>
        <pt x="762" y="225" on="1"/>
        <pt x="762" y="180" on="0"/>
        <pt x="783" y="125" on="0"/>
        <pt x="821" y="95" on="0"/>
        <pt x="875" y="86" on="0"/>
        <pt x="909" y="86" on="1"/>
        <pt x="936" y="86" on="1"/>
        <pt x="936" y="0" on="1"/>
        <pt x="354" y="0" on="1"/>
        <pt x="354" y="86" on="1"/>
        <pt x="422" y="86" on="1"/>
        <pt x="456" y="86" on="0"/>
        <pt x="510" y="95" on="0"/>
        <pt x="548" y="125" on="0"/>
        <pt x="569" y="180" on="0"/>
        <pt x="569" y="225" on="1"/>
        <pt x="569" y="547" on="1"/>
        <pt x="268" y="547" on="1"/>
        <pt x="268" y="643" on="1"/>
      </contour>
    </TTGlyph>
    <TTGlyph name="uniFB13" xMin="47" yMin="-20" xMax="2480" yMax="1577">
      <contour>
        <pt x="2306" y="223" on="1"/>
        <pt x="2306" y="152" on="0"/>
        <pt x="2379" y="86" on="0"/>
        <pt x="2474" y="86" on="1"/>
        <pt x="2480" y="86" on="1"/>
        <pt x="2480" y="0" on="1"/>
        <pt x="2154" y="0" on="1"/>
        <pt x="2128" y="166" on="1"/>
        <pt x="2118" y="166" on="1"/>
        <pt x="2068" y="72" on="0"/>
        <pt x="1919" y="-20" on="0"/>
        <pt x="1796" y="-20" on="1"/>
        <pt x="1629" y="-20" on="0"/>
        <pt x="1468" y="175" on="0"/>
        <pt x="1468" y="381" on="1"/>
        <pt x="1468" y="1001" on="1"/>
        <pt x="1059" y="1001" on="1"/>
        <pt x="1059" y="223" on="1"/>
        <pt x="1059" y="152" on="0"/>
        <pt x="1132" y="86" on="0"/>
        <pt x="1227" y="86" on="1"/>
        <pt x="1233" y="86" on="1"/>
        <pt x="1233" y="0" on="1"/>
        <pt x="907" y="0" on="1"/>
        <pt x="881" y="166" on="1"/>
        <pt x="870" y="166" on="1"/>
        <pt x="819" y="70" on="0"/>
        <pt x="671" y="-20" on="0"/>
        <pt x="549" y="-20" on="1"/>
        <pt x="382" y="-20" on="0"/>
        <pt x="221" y="175" on="0"/>
        <pt x="221" y="381" on="1"/>
        <pt x="221" y="872" on="1"/>
        <pt x="221" y="943" on="0"/>
        <pt x="145" y="1012" on="0"/>
        <pt x="53" y="1012" on="1"/>
        <pt x="47" y="1012" on="1"/>
        <pt x="47" y="1098" on="1"/>
        <pt x="414" y="1098" on="1"/>
        <pt x="414" y="391" on="1"/>
        <pt x="414" y="235" on="0"/>
        <pt x="510" y="111" on="0"/>
        <pt x="618" y="111" on="1"/>
        <pt x="866" y="111" on="0"/>
        <pt x="866" y="442" on="1"/>
        <pt x="866" y="1001" on="1"/>
        <pt x="836" y="1001" on="1"/>
        <pt x="678" y="1001" on="0"/>
        <pt x="514" y="1120" on="0"/>
        <pt x="514" y="1237" on="1"/>
        <pt x="514" y="1308" on="0"/>
        <pt x="600" y="1389" on="0"/>
        <pt x="690" y="1389" on="1"/>
        <pt x="662" y="1338" on="0"/>
        <pt x="662" y="1278" on="1"/>
        <pt x="662" y="1181" on="0"/>
        <pt x="743" y="1098" on="0"/>
        <pt x="836" y="1098" on="1"/>
        <pt x="866" y="1098" on="1"/>
        <pt x="866" y="1200" on="1"/>
        <pt x="866" y="1377" on="0"/>
        <pt x="1055" y="1577" on="0"/>
        <pt x="1229" y="1577" on="1"/>
        <pt x="1351" y="1577" on="0"/>
        <pt x="1495" y="1490" on="0"/>
        <pt x="1495" y="1413" on="1"/>
        <pt x="1495" y="1298" on="0"/>
        <pt x="1348" y="1298" on="1"/>
        <pt x="1348" y="1383" on="0"/>
        <pt x="1275" y="1483" on="0"/>
        <pt x="1212" y="1483" on="1"/>
        <pt x="1125" y="1483" on="0"/>
        <pt x="1059" y="1348" on="0"/>
        <pt x="1059" y="1219" on="1"/>
        <pt x="1059" y="1098" on="1"/>
        <pt x="1661" y="1098" on="1"/>
        <pt x="1661" y="391" on="1"/>
        <pt x="1661" y="235" on="0"/>
        <pt x="1757" y="111" on="0"/>
        <pt x="1866" y="111" on="1"/>
        <pt x="2114" y="111" on="0"/>
        <pt x="2114" y="442" on="1"/>
        <pt x="2114" y="864" on="1"/>
        <pt x="2114" y="939" on="0"/>
        <pt x="2041" y="1012" on="0"/>
        <pt x="1946" y="1012" on="1"/>
        <pt x="1939" y="1012" on="1"/>
        <pt x="1939" y="1098" on="1"/>
        <pt x="2306" y="1098" on="1"/>
      </contour>
    </TTGlyph>
    <TTGlyph name="uniFB14" xMin="47" yMin="-20" xMax="2480" yMax="1577">
      <contour>
        <pt x="866" y="1122" on="1"/>
        <pt x="866" y="1348" on="0"/>
        <pt x="1089" y="1577" on="0"/>
        <pt x="1307" y="1577" on="1"/>
        <pt x="1338" y="1577" on="0"/>
        <pt x="1453" y="1563" on="0"/>
        <pt x="1477" y="1556" on="1"/>
        <pt x="1661" y="1556" on="1"/>
        <pt x="1661" y="1098" on="1"/>
        <pt x="2306" y="1098" on="1"/>
        <pt x="2306" y="981" on="1"/>
        <pt x="1661" y="981" on="1"/>
        <pt x="1661" y="391" on="1"/>
        <pt x="1661" y="235" on="0"/>
        <pt x="1757" y="111" on="0"/>
        <pt x="1866" y="111" on="1"/>
        <pt x="2114" y="111" on="0"/>
        <pt x="2114" y="442" on="1"/>
        <pt x="2114" y="700" on="1"/>
        <pt x="2306" y="700" on="1"/>
        <pt x="2306" y="223" on="1"/>
        <pt x="2306" y="152" on="0"/>
        <pt x="2379" y="86" on="0"/>
        <pt x="2474" y="86" on="1"/>
        <pt x="2480" y="86" on="1"/>
        <pt x="2480" y="0" on="1"/>
        <pt x="2154" y="0" on="1"/>
        <pt x="2128" y="166" on="1"/>
        <pt x="2118" y="166" on="1"/>
        <pt x="2068" y="72" on="0"/>
        <pt x="1919" y="-20" on="0"/>
        <pt x="1796" y="-20" on="1"/>
        <pt x="1629" y="-20" on="0"/>
        <pt x="1468" y="175" on="0"/>
        <pt x="1468" y="381" on="1"/>
        <pt x="1468" y="1274" on="1"/>
        <pt x="1468" y="1372" on="0"/>
        <pt x="1368" y="1483" on="0"/>
        <pt x="1274" y="1483" on="1"/>
        <pt x="1165" y="1483" on="0"/>
        <pt x="1059" y="1318" on="0"/>
        <pt x="1059" y="1128" on="1"/>
        <pt x="1059" y="223" on="1"/>
        <pt x="1059" y="152" on="0"/>
        <pt x="1132" y="86" on="0"/>
        <pt x="1227" y="86" on="1"/>
        <pt x="1233" y="86" on="1"/>
        <pt x="1233" y="0" on="1"/>
        <pt x="907" y="0" on="1"/>
        <pt x="881" y="166" on="1"/>
        <pt x="870" y="166" on="1"/>
        <pt x="819" y="70" on="0"/>
        <pt x="671" y="-20" on="0"/>
        <pt x="549" y="-20" on="1"/>
        <pt x="382" y="-20" on="0"/>
        <pt x="221" y="175" on="0"/>
        <pt x="221" y="381" on="1"/>
        <pt x="221" y="872" on="1"/>
        <pt x="221" y="943" on="0"/>
        <pt x="145" y="1012" on="0"/>
        <pt x="53" y="1012" on="1"/>
        <pt x="47" y="1012" on="1"/>
        <pt x="47" y="1098" on="1"/>
        <pt x="414" y="1098" on="1"/>
        <pt x="414" y="391" on="1"/>
        <pt x="414" y="235" on="0"/>
        <pt x="510" y="111" on="0"/>
        <pt x="618" y="111" on="1"/>
        <pt x="866" y="111" on="0"/>
        <pt x="866" y="442" on="1"/>
      </contour>
    </TTGlyph>
    <TTGlyph name="uniFB15" xMin="47" yMin="-492" xMax="2490" yMax="1577">
      <contour>
        <pt x="1661" y="1106" on="1"/>
        <pt x="1661" y="1048" on="0"/>
        <pt x="1653" y="932" on="1"/>
        <pt x="1663" y="932" on="1"/>
        <pt x="1755" y="1118" on="0"/>
        <pt x="1964" y="1118" on="1"/>
        <pt x="2327" y="1118" on="0"/>
        <pt x="2327" y="717" on="1"/>
        <pt x="2327" y="233" on="1"/>
        <pt x="2327" y="155" on="0"/>
        <pt x="2395" y="86" on="0"/>
        <pt x="2484" y="86" on="1"/>
        <pt x="2490" y="86" on="1"/>
        <pt x="2490" y="0" on="1"/>
        <pt x="2134" y="0" on="1"/>
        <pt x="2134" y="707" on="1"/>
        <pt x="2134" y="850" on="0"/>
        <pt x="2026" y="987" on="0"/>
        <pt x="1909" y="987" on="1"/>
        <pt x="1788" y="987" on="0"/>
        <pt x="1661" y="814" on="0"/>
        <pt x="1661" y="655" on="1"/>
        <pt x="1661" y="-268" on="1"/>
        <pt x="1661" y="-338" on="0"/>
        <pt x="1734" y="-406" on="0"/>
        <pt x="1829" y="-406" on="1"/>
        <pt x="1835" y="-406" on="1"/>
        <pt x="1835" y="-492" on="1"/>
        <pt x="1468" y="-492" on="1"/>
        <pt x="1468" y="1274" on="1"/>
        <pt x="1468" y="1372" on="0"/>
        <pt x="1368" y="1483" on="0"/>
        <pt x="1274" y="1483" on="1"/>
        <pt x="1165" y="1483" on="0"/>
        <pt x="1059" y="1318" on="0"/>
        <pt x="1059" y="1128" on="1"/>
        <pt x="1059" y="223" on="1"/>
        <pt x="1059" y="152" on="0"/>
        <pt x="1132" y="86" on="0"/>
        <pt x="1227" y="86" on="1"/>
        <pt x="1233" y="86" on="1"/>
        <pt x="1233" y="0" on="1"/>
        <pt x="907" y="0" on="1"/>
        <pt x="881" y="166" on="1"/>
        <pt x="870" y="166" on="1"/>
        <pt x="819" y="70" on="0"/>
        <pt x="671" y="-20" on="0"/>
        <pt x="549" y="-20" on="1"/>
        <pt x="382" y="-20" on="0"/>
        <pt x="221" y="175" on="0"/>
        <pt x="221" y="381" on="1"/>
        <pt x="221" y="872" on="1"/>
        <pt x="221" y="943" on="0"/>
        <pt x="145" y="1012" on="0"/>
        <pt x="53" y="1012" on="1"/>
        <pt x="47" y="1012" on="1"/>
        <pt x="47" y="1098" on="1"/>
        <pt x="414" y="1098" on="1"/>
        <pt x="414" y="391" on="1"/>
        <pt x="414" y="235" on="0"/>
        <pt x="510" y="111" on="0"/>
        <pt x="618" y="111" on="1"/>
        <pt x="866" y="111" on="0"/>
        <pt x="866" y="442" on="1"/>
        <pt x="866" y="1122" on="1"/>
        <pt x="866" y="1348" on="0"/>
        <pt x="1089" y="1577" on="0"/>
        <pt x="1307" y="1577" on="1"/>
        <pt x="1338" y="1577" on="0"/>
        <pt x="1453" y="1563" on="0"/>
        <pt x="1477" y="1556" on="1"/>
        <pt x="1661" y="1556" on="1"/>
      </contour>
    </TTGlyph>
    <TTGlyph name="uniFB16" xMin="47" yMin="-492" xMax="2480" yMax="1556">
      <contour>
        <pt x="1059" y="1098" on="1"/>
        <pt x="1661" y="1098" on="1"/>
        <pt x="1661" y="391" on="1"/>
        <pt x="1661" y="235" on="0"/>
        <pt x="1757" y="111" on="0"/>
        <pt x="1866" y="111" on="1"/>
        <pt x="2114" y="111" on="0"/>
        <pt x="2114" y="442" on="1"/>
        <pt x="2114" y="864" on="1"/>
        <pt x="2114" y="939" on="0"/>
        <pt x="2041" y="1012" on="0"/>
        <pt x="1946" y="1012" on="1"/>
        <pt x="1939" y="1012" on="1"/>
        <pt x="1939" y="1098" on="1"/>
        <pt x="2306" y="1098" on="1"/>
        <pt x="2306" y="223" on="1"/>
        <pt x="2306" y="152" on="0"/>
        <pt x="2379" y="86" on="0"/>
        <pt x="2474" y="86" on="1"/>
        <pt x="2480" y="86" on="1"/>
        <pt x="2480" y="0" on="1"/>
        <pt x="2154" y="0" on="1"/>
        <pt x="2128" y="166" on="1"/>
        <pt x="2118" y="166" on="1"/>
        <pt x="2068" y="72" on="0"/>
        <pt x="1919" y="-20" on="0"/>
        <pt x="1796" y="-20" on="1"/>
        <pt x="1629" y="-20" on="0"/>
        <pt x="1468" y="175" on="0"/>
        <pt x="1468" y="381" on="1"/>
        <pt x="1468" y="1001" on="1"/>
        <pt x="1059" y="1001" on="1"/>
        <pt x="1059" y="-375" on="1"/>
        <pt x="1382" y="-375" on="1"/>
        <pt x="1382" y="-492" on="1"/>
        <pt x="866" y="-492" on="1"/>
        <pt x="866" y="0" on="1"/>
        <pt x="866" y="87" on="0"/>
        <pt x="881" y="166" on="1"/>
        <pt x="870" y="166" on="1"/>
        <pt x="819" y="70" on="0"/>
        <pt x="671" y="-20" on="0"/>
        <pt x="549" y="-20" on="1"/>
        <pt x="382" y="-20" on="0"/>
        <pt x="221" y="175" on="0"/>
        <pt x="221" y="381" on="1"/>
        <pt x="221" y="872" on="1"/>
        <pt x="221" y="943" on="0"/>
        <pt x="145" y="1012" on="0"/>
        <pt x="53" y="1012" on="1"/>
        <pt x="47" y="1012" on="1"/>
        <pt x="47" y="1098" on="1"/>
        <pt x="414" y="1098" on="1"/>
        <pt x="414" y="391" on="1"/>
        <pt x="414" y="235" on="0"/>
        <pt x="510" y="111" on="0"/>
        <pt x="618" y="111" on="1"/>
        <pt x="866" y="111" on="0"/>
        <pt x="866" y="442" on="1"/>
        <pt x="866" y="1001" on="1"/>
        <pt x="795" y="1001" on="1"/>
        <pt x="637" y="1001" on="0"/>
        <pt x="473" y="1120" on="0"/>
        <pt x="473" y="1237" on="1"/>
        <pt x="473" y="1308" on="0"/>
        <pt x="559" y="1389" on="0"/>
        <pt x="649" y="1389" on="1"/>
        <pt x="621" y="1338" on="0"/>
        <pt x="621" y="1278" on="1"/>
        <pt x="621" y="1181" on="0"/>
        <pt x="702" y="1098" on="0"/>
        <pt x="795" y="1098" on="1"/>
        <pt x="866" y="1098" on="1"/>
        <pt x="866" y="1331" on="1"/>
        <pt x="866" y="1408" on="0"/>
        <pt x="811" y="1470" on="0"/>
        <pt x="729" y="1470" on="1"/>
        <pt x="729" y="1556" on="1"/>
        <pt x="1059" y="1556" on="1"/>
      </contour>
    </TTGlyph>
    <TTGlyph name="uniFB17" xMin="47" yMin="-492" xMax="3125" yMax="1577">
      <contour>
        <pt x="1661" y="1106" on="1"/>
        <pt x="1661" y="1048" on="0"/>
        <pt x="1653" y="932" on="1"/>
        <pt x="1663" y="932" on="1"/>
        <pt x="1709" y="1025" on="0"/>
        <pt x="1849" y="1118" on="0"/>
        <pt x="1954" y="1118" on="1"/>
        <pt x="2129" y="1118" on="0"/>
        <pt x="2306" y="927" on="0"/>
        <pt x="2306" y="717" on="1"/>
        <pt x="2306" y="391" on="1"/>
        <pt x="2306" y="235" on="0"/>
        <pt x="2402" y="111" on="0"/>
        <pt x="2511" y="111" on="1"/>
        <pt x="2759" y="111" on="0"/>
        <pt x="2759" y="442" on="1"/>
        <pt x="2759" y="864" on="1"/>
        <pt x="2759" y="939" on="0"/>
        <pt x="2686" y="1012" on="0"/>
        <pt x="2591" y="1012" on="1"/>
        <pt x="2585" y="1012" on="1"/>
        <pt x="2585" y="1098" on="1"/>
        <pt x="2951" y="1098" on="1"/>
        <pt x="2951" y="223" on="1"/>
        <pt x="2951" y="152" on="0"/>
        <pt x="3024" y="86" on="0"/>
        <pt x="3119" y="86" on="1"/>
        <pt x="3125" y="86" on="1"/>
        <pt x="3125" y="0" on="1"/>
        <pt x="2800" y="0" on="1"/>
        <pt x="2773" y="166" on="1"/>
        <pt x="2763" y="166" on="1"/>
        <pt x="2713" y="72" on="0"/>
        <pt x="2564" y="-20" on="0"/>
        <pt x="2441" y="-20" on="1"/>
        <pt x="2272" y="-20" on="0"/>
        <pt x="2114" y="177" on="0"/>
        <pt x="2114" y="381" on="1"/>
        <pt x="2114" y="707" on="1"/>
        <pt x="2114" y="856" on="0"/>
        <pt x="2011" y="987" on="0"/>
        <pt x="1898" y="987" on="1"/>
        <pt x="1780" y="987" on="0"/>
        <pt x="1661" y="819" on="0"/>
        <pt x="1661" y="655" on="1"/>
        <pt x="1661" y="-268" on="1"/>
        <pt x="1661" y="-338" on="0"/>
        <pt x="1734" y="-406" on="0"/>
        <pt x="1829" y="-406" on="1"/>
        <pt x="1835" y="-406" on="1"/>
        <pt x="1835" y="-492" on="1"/>
        <pt x="1468" y="-492" on="1"/>
        <pt x="1468" y="1274" on="1"/>
        <pt x="1468" y="1372" on="0"/>
        <pt x="1368" y="1483" on="0"/>
        <pt x="1274" y="1483" on="1"/>
        <pt x="1165" y="1483" on="0"/>
        <pt x="1059" y="1318" on="0"/>
        <pt x="1059" y="1128" on="1"/>
        <pt x="1059" y="223" on="1"/>
        <pt x="1059" y="152" on="0"/>
        <pt x="1132" y="86" on="0"/>
        <pt x="1227" y="86" on="1"/>
        <pt x="1233" y="86" on="1"/>
        <pt x="1233" y="0" on="1"/>
        <pt x="907" y="0" on="1"/>
        <pt x="881" y="166" on="1"/>
        <pt x="870" y="166" on="1"/>
        <pt x="819" y="70" on="0"/>
        <pt x="671" y="-20" on="0"/>
        <pt x="549" y="-20" on="1"/>
        <pt x="382" y="-20" on="0"/>
        <pt x="221" y="175" on="0"/>
        <pt x="221" y="381" on="1"/>
        <pt x="221" y="872" on="1"/>
        <pt x="221" y="943" on="0"/>
        <pt x="145" y="1012" on="0"/>
        <pt x="53" y="1012" on="1"/>
        <pt x="47" y="1012" on="1"/>
        <pt x="47" y="1098" on="1"/>
        <pt x="414" y="1098" on="1"/>
        <pt x="414" y="391" on="1"/>
        <pt x="414" y="235" on="0"/>
        <pt x="510" y="111" on="0"/>
        <pt x="618" y="111" on="1"/>
        <pt x="866" y="111" on="0"/>
        <pt x="866" y="442" on="1"/>
        <pt x="866" y="1122" on="1"/>
        <pt x="866" y="1348" on="0"/>
        <pt x="1089" y="1577" on="0"/>
        <pt x="1307" y="1577" on="1"/>
        <pt x="1338" y="1577" on="0"/>
        <pt x="1453" y="1563" on="0"/>
        <pt x="1477" y="1556" on="1"/>
        <pt x="1661" y="1556" on="1"/>
      </contour>
    </TTGlyph>
</ttFont>
